<svg width="94" height="85" viewBox="0 0 94 85" fill="none" xmlns="http://www.w3.org/2000/svg">
<g filter="url(#filter0_ddd_2865_2688)">
<path d="M62.2332 8H31.7668C29.795 8 27.9713 9.05814 26.9807 10.766L11.7429 37.2293C10.7524 38.9465 10.7524 41.0535 11.7429 42.7707L26.9807 69.234C27.9713 70.9511 29.795 72 31.7668 72H62.2332C64.205 72 66.0287 70.9419 67.0193 69.234L82.2571 42.7707C83.2476 41.0535 83.2476 38.9465 82.2571 37.2293L67.0193 10.766C66.0287 9.04886 64.205 8 62.2332 8Z" fill="white"/>
</g>
<path fill-rule="evenodd" clip-rule="evenodd" d="M47.1281 24.8453C47.9382 23.9344 49.8755 22.5546 50.8985 21.9319C52.15 21.1381 54.9274 20.3966 56.0257 23.7811C56.4301 24.8115 56.8608 28.0637 56.8096 28.95C56.771 31.6371 56.0245 36.6448 53.7329 41.3859C54.7094 46.112 54.4377 48.7052 53.8302 50.0166C53.4429 50.8527 52.919 51.1677 52.4952 51.1821C45.1434 50.4648 38.2622 46.9234 35.7406 45.2424C35.1927 44.8956 34.8568 44.4988 34.6919 44.0687C34.5994 43.8274 34.5607 43.5757 34.5686 43.3164C34.6344 41.1523 37.9456 38.4655 40.2919 36.982C41.2219 33.0454 43.2231 28.5958 47.1155 24.8458L47.1281 24.8453ZM53.7035 31.2311C53.7035 33.0442 52.2337 34.514 50.4206 34.514C48.6075 34.514 47.1378 33.0442 47.1378 31.2311C47.1378 29.418 48.6075 27.9482 50.4206 27.9482C52.2337 27.9482 53.7035 29.418 53.7035 31.2311ZM34.2447 45.1915C34.4179 45.5962 34.7468 45.9702 35.2665 46.2991C36.1384 46.8804 37.5314 47.684 39.2849 48.5164C38.8504 49.9095 38.0346 50.4179 37.6092 50.4938C37.8782 49.4628 37.7213 48.9062 37.6092 48.7568C36.892 51.1326 36.115 51.764 35.8161 51.7826C35.1437 51.693 34.1538 52.343 33.7428 52.6792C33.2497 51.5585 33.5374 50.1576 33.7428 49.5973C32.7564 50.0007 32.3981 50.7366 32.3422 51.0542C32.1308 48.0938 33.2678 46.1632 34.2447 45.1915ZM47.769 54.4101C47.4331 54.1043 46.9867 53.164 47.4688 51.6224C49.1561 52.0682 50.9288 52.4134 52.7297 52.5891C52.9782 52.5806 53.261 52.4689 53.5305 52.2095C53.7132 53.5717 53.4834 55.5712 51.9275 57.6907C52.0494 57.3923 52.1383 56.5786 51.5185 55.7116C51.3938 56.2952 50.8908 57.6339 49.8764 58.3196C49.7078 57.8161 49.2164 56.7386 48.5996 56.4562C48.3567 56.2811 48.0356 55.3329 48.6945 52.9402C48.5201 53.0069 48.0907 53.3943 47.769 54.4101ZM40.3518 48.9354C39.2975 51.1023 38.3227 55.2947 41.0783 58.7392C40.8541 58.1228 40.809 56.5314 42.4228 55.0969C42.703 55.3584 43.2521 56.0719 43.2073 56.834C43.778 56.3611 45.0434 54.5872 46.0416 51.0424C43.9525 50.4335 42.0175 49.6847 40.3518 48.9354ZM43.6147 27.3337C41.5043 29.8662 40.0583 33.3914 39.5991 34.8374C37.04 34.8374 35.4715 33.9597 34.5988 33.0494C33.8607 32.2795 34.0036 31.075 34.8149 30.3828C37.1178 28.4178 41.4274 27.5385 43.6147 27.3337ZM55.1728 40.7558C55.8649 39.4057 57.3204 35.8844 57.6051 32.6001C58.9501 34.2093 61.2359 37.6172 61.6592 40.5478C61.8497 41.8673 60.8963 43.0833 59.5658 42.9989C58.3534 42.922 56.7972 42.3666 55.1728 40.7558Z" fill="url(#paint0_linear_2865_2688)"/>
<defs>
<filter id="filter0_ddd_2865_2688" x="0.982759" y="0.111422" width="92.0345" height="84.0345" filterUnits="userSpaceOnUse" color-interpolation-filters="sRGB">
<feFlood flood-opacity="0" result="BackgroundImageFix"/>
<feColorMatrix in="SourceAlpha" type="matrix" values="0 0 0 0 0 0 0 0 0 0 0 0 0 0 0 0 0 0 127 0" result="hardAlpha"/>
<feOffset dy="0.470434"/>
<feGaussianBlur stdDeviation="1.1069"/>
<feColorMatrix type="matrix" values="0 0 0 0 0.0862745 0 0 0 0 0.0235294 0 0 0 0 0.67451 0 0 0 0.0112458 0"/>
<feBlend mode="normal" in2="BackgroundImageFix" result="effect1_dropShadow_2865_2688"/>
<feColorMatrix in="SourceAlpha" type="matrix" values="0 0 0 0 0 0 0 0 0 0 0 0 0 0 0 0 0 0 127 0" result="hardAlpha"/>
<feOffset dy="1.13052"/>
<feGaussianBlur stdDeviation="2.66004"/>
<feColorMatrix type="matrix" values="0 0 0 0 0.0862745 0 0 0 0 0.0235294 0 0 0 0 0.67451 0 0 0 0.0161557 0"/>
<feBlend mode="normal" in2="effect1_dropShadow_2865_2688" result="effect2_dropShadow_2865_2688"/>
<feColorMatrix in="SourceAlpha" type="matrix" values="0 0 0 0 0 0 0 0 0 0 0 0 0 0 0 0 0 0 127 0" result="hardAlpha"/>
<feOffset dy="2.12866"/>
<feGaussianBlur stdDeviation="5.00862"/>
<feColorMatrix type="matrix" values="0 0 0 0 0.0862745 0 0 0 0 0.0235294 0 0 0 0 0.67451 0 0 0 0.02 0"/>
<feBlend mode="normal" in2="effect2_dropShadow_2865_2688" result="effect3_dropShadow_2865_2688"/>
<feBlend mode="normal" in="SourceGraphic" in2="effect3_dropShadow_2865_2688" result="shape"/>
</filter>
<linearGradient id="paint0_linear_2865_2688" x1="54.5982" y1="21.2608" x2="40.9938" y2="60.1875" gradientUnits="userSpaceOnUse">
<stop stop-color="#54D7FF"/>
<stop offset="0.260417" stop-color="#55D7FF"/>
<stop offset="0.411458" stop-color="#5EA6FF"/>
<stop offset="0.59375" stop-color="#667EFF"/>
<stop offset="0.6875" stop-color="#6B65FF"/>
<stop offset="0.92683" stop-color="#6F52FF"/>
</linearGradient>
</defs>
</svg>
