<svg width="72" height="72" viewBox="0 0 72 72" fill="none" xmlns="http://www.w3.org/2000/svg">
<path d="M51.2332 4H20.7668C18.795 4 16.9713 5.05814 15.9807 6.76604L0.742912 33.2293C-0.247637 34.9465 -0.247637 37.0535 0.742912 38.7707L15.9807 65.234C16.9713 66.9511 18.795 68 20.7668 68H51.2332C53.205 68 55.0287 66.9419 56.0193 65.234L71.2571 38.7707C72.2476 37.0535 72.2476 34.9465 71.2571 33.2293L56.0193 6.76604C55.0287 5.04886 53.205 4 51.2332 4Z" fill="white"/>
<path fill-rule="evenodd" clip-rule="evenodd" d="M31.3406 34.3557C28.7448 30.3007 25.4428 29.5876 23.3258 29.8336L30.2455 46.5828L29.3213 46.9646L22.2653 29.8856C22.1839 29.8092 22.1396 29.695 22.1696 29.5764C26.2557 13.4346 38.3012 13.5801 43.874 15.7065C56.4115 21.5562 53.9355 33.5999 50.9415 39.3319C50.8874 39.4356 50.7862 39.4875 50.6814 39.4896L35.032 49.4861L34.4936 48.6433L49.9079 38.797C47.6964 36.6913 43.6693 37.1102 41.2336 37.7844L33.297 48.2181L32.5011 47.6127L40.1332 37.5794C37.9728 35.1081 34.4354 34.5767 32.3263 34.6335L31.5816 47.6034L30.5832 47.546L31.3406 34.3557Z" fill="url(#paint0_linear_2865_2744)"/>
<circle cx="30.8217" cy="52.9625" r="6.8788" transform="rotate(16.3708 30.8217 52.9625)" stroke="#7533FF" stroke-width="0.2"/>
<circle cx="30.8217" cy="52.9625" r="6.9788" transform="rotate(16.3708 30.8217 52.9625)" fill="url(#paint1_linear_2865_2744)"/>
<circle cx="30.8215" cy="52.9624" r="6.00177" transform="rotate(16.3708 30.8215 52.9624)" fill="white"/>
<path fill-rule="evenodd" clip-rule="evenodd" d="M36.0448 54.4966C35.1975 57.3811 32.1722 59.0325 29.2878 58.1852C26.4033 57.3378 24.7519 54.3126 25.5993 51.4281C26.4466 48.5437 29.4718 46.8923 32.3563 47.7396C35.2407 48.587 36.8921 51.6122 36.0448 54.4966ZM31.8463 49.3421L28.4875 52.4511L30.3413 54.4447L33.0207 53.8151L31.8463 49.3421ZM28.3526 52.8589L29.6536 56.7097L32.8525 54.2128L30.2146 54.8718L28.3526 52.8589Z" fill="url(#paint2_linear_2865_2744)"/>
<defs>
<linearGradient id="paint0_linear_2865_2744" x1="46.4635" y1="17.1263" x2="28.4103" y2="46.4028" gradientUnits="userSpaceOnUse">
<stop stop-color="#50E6FE"/>
<stop offset="1" stop-color="#733BFF"/>
</linearGradient>
<linearGradient id="paint1_linear_2865_2744" x1="30.8217" y1="45.9837" x2="30.8217" y2="59.9413" gradientUnits="userSpaceOnUse">
<stop stop-color="#50E6FE"/>
<stop offset="1" stop-color="#733BFF"/>
</linearGradient>
<linearGradient id="paint2_linear_2865_2744" x1="33.6799" y1="48.3279" x2="27.9642" y2="57.5969" gradientUnits="userSpaceOnUse">
<stop stop-color="#50E6FE"/>
<stop offset="1" stop-color="#733BFF"/>
</linearGradient>
</defs>
</svg>
