<svg width="94" height="85" viewBox="0 0 94 85" fill="none" xmlns="http://www.w3.org/2000/svg">
<g filter="url(#filter0_ddd_2865_55741)">
<path d="M62.2332 8H31.7668C29.795 8 27.9713 9.05814 26.9807 10.766L11.7429 37.2293C10.7524 38.9465 10.7524 41.0535 11.7429 42.7707L26.9807 69.234C27.9713 70.9511 29.795 72 31.7668 72H62.2332C64.205 72 66.0287 70.9419 67.0193 69.234L82.2571 42.7707C83.2476 41.0535 83.2476 38.9465 82.2571 37.2293L67.0193 10.766C66.0287 9.04886 64.205 8 62.2332 8Z" fill="white"/>
</g>
<path d="M49.1042 63.1885L39.67 52.6494C43.7497 51.9014 48.6236 45.1325 50.9741 41.9403C55.5561 36.1302 58.5951 34.8292 59.8983 34.4609L69.2475 45C65.6438 45.408 59.7566 52.876 57.2635 56.559C54.2718 60.7067 50.5774 62.7068 49.1042 63.1885Z" fill="url(#paint0_linear_2865_55741)"/>
<path d="M47.7436 59.5338L43.664 54.9442C45.5678 54.4002 44.9106 52.5644 44.3439 51.7144C45.9078 51.1025 50.3784 45.2833 52.4182 42.4502C53.6931 40.7504 56.0729 38.3989 57.2628 37.4357C58.4187 38.9315 60.2942 38.3989 61.0875 37.9456L65.1671 42.4502C63.0593 43.8101 64.1189 45.2833 64.9122 45.8499C62.9403 46.6659 58.1411 53.046 55.9879 56.1341C54.832 57.6979 52.7865 59.5054 51.9083 60.2137C50.6844 58.4459 48.6219 59.0238 47.7436 59.5338Z" fill="white"/>
<path d="M50.7156 53.7777C51.1447 54.6854 50.8284 55.5429 50.2766 55.8037C49.7247 56.0646 48.8613 55.7648 48.4322 54.8572C48.0031 53.9495 48.3195 53.092 48.8713 52.8312C49.4231 52.5703 50.2865 52.8701 50.7156 53.7777Z" stroke="url(#paint1_linear_2865_55741)"/>
<path d="M60.5644 43.2755C60.9935 44.1831 60.6772 45.0406 60.1254 45.3015C59.5736 45.5623 58.7101 45.2626 58.281 44.3549C57.8519 43.4473 58.1683 42.5898 58.7201 42.3289C59.2719 42.068 60.1353 42.3678 60.5644 43.2755Z" stroke="url(#paint2_linear_2865_55741)"/>
<path fill-rule="evenodd" clip-rule="evenodd" d="M54.3732 52.6495C56.11 52.6495 57.5179 50.9371 57.5179 48.8248C57.5179 46.7125 56.11 45.0001 54.3732 45.0001C52.6364 45.0001 51.2285 46.7125 51.2285 48.8248C51.2285 50.9371 52.6364 52.6495 54.3732 52.6495ZM55.1105 50.4465L55.3694 50.8037L55.812 50.4829L55.5419 50.1102C55.7688 49.8786 55.8906 49.6463 55.9072 49.4131C55.9264 49.1781 55.8666 48.9649 55.7278 48.7733C55.5834 48.574 55.4029 48.464 55.1865 48.4431C54.9727 48.4205 54.706 48.4775 54.3866 48.6142L53.9196 47.9697C54.0277 47.9229 54.1292 47.8967 54.2239 47.8912C54.3187 47.8857 54.4081 47.892 54.4922 47.91L54.6148 47.3356C54.4581 47.2991 54.3008 47.2946 54.1431 47.3221C53.9835 47.347 53.8194 47.4066 53.651 47.5011L53.3865 47.1361L52.9439 47.4569L53.2084 47.8218C52.9779 48.0323 52.8436 48.25 52.8054 48.4751C52.7698 48.6983 52.826 48.9122 52.9742 49.1167C53.1112 49.3056 53.289 49.4176 53.5078 49.4525C53.7265 49.4874 54.0037 49.4286 54.3394 49.2762L54.8458 49.9751C54.7259 50.0383 54.6028 50.0782 54.4765 50.0947C54.3484 50.1086 54.2187 50.1039 54.0874 50.0806L53.9686 50.6522C54.1458 50.6897 54.3279 50.6959 54.5151 50.6708C54.7022 50.6457 54.9007 50.571 55.1105 50.4465ZM53.6914 48.8397C53.6174 48.8302 53.5532 48.7879 53.4988 48.7128C53.4444 48.6378 53.4214 48.5597 53.4297 48.4786C53.4388 48.3931 53.485 48.3043 53.5684 48.2123L53.9848 48.787C53.8658 48.8298 53.768 48.8474 53.6914 48.8397ZM55.0543 49.0778C55.1255 49.1052 55.1817 49.1474 55.2229 49.2043C55.2773 49.2794 55.3032 49.3614 55.3004 49.4502C55.2958 49.5364 55.2576 49.6253 55.1858 49.7169L54.7412 49.1034C54.8769 49.0564 54.9812 49.0479 55.0543 49.0778Z" fill="url(#paint3_linear_2865_55741)"/>
<circle cx="37.8313" cy="34.4609" r="8.58641" stroke="#7533FF" stroke-width="0.2"/>
<circle cx="37.8313" cy="34.4609" r="8.68641" fill="url(#paint4_linear_2865_55741)"/>
<circle cx="37.8311" cy="34.461" r="7.47031" fill="white"/>
<path fill-rule="evenodd" clip-rule="evenodd" d="M37.8319 41.2363C41.5738 41.2363 44.6072 38.2029 44.6072 34.4609C44.6072 30.719 41.5738 27.6855 37.8319 27.6855C34.0899 27.6855 31.0565 30.719 31.0565 34.4609C31.0565 38.2029 34.0899 41.2363 37.8319 41.2363ZM40.9423 33.8138C40.6404 34.1094 40.2259 34.3019 39.7756 34.3467C40.0008 34.3467 40.2208 34.3825 40.4306 34.4676C40.6353 34.5437 40.8246 34.6512 40.9833 34.79C41.1419 34.9288 41.2647 35.0945 41.3517 35.2737C41.4335 35.4528 41.4796 35.6453 41.4796 35.8424V36.6708C41.4796 36.8633 41.4387 37.0604 41.3517 37.2395C41.2647 37.4186 41.1419 37.5843 40.9833 37.7231C40.8246 37.8619 40.6353 37.9694 40.4306 38.0455C40.2259 38.1172 40.0059 38.1575 39.7808 38.1575H38.7048C38.6716 38.1575 38.6448 38.1843 38.6448 38.2175V39.0916C38.6448 39.1247 38.6179 39.1516 38.5848 39.1516H37.5688C37.5357 39.1516 37.5088 39.1247 37.5088 39.0916V38.2757C37.5088 38.2425 37.482 38.2157 37.4488 38.2157H37.1288C37.0956 38.2157 37.0688 38.2425 37.0688 38.2757V39.0916C37.0688 39.1247 37.0419 39.1516 37.0088 39.1516H35.9314C35.8982 39.1516 35.8714 39.1247 35.8714 39.0916V38.2488C35.8714 38.2157 35.8445 38.1888 35.8114 38.1888H34.4167C34.3836 38.1888 34.3567 38.1619 34.3567 38.1288V36.8069C34.3567 36.7738 34.3836 36.7469 34.4167 36.7469H35.8063C35.8394 36.7469 35.8663 36.72 35.8663 36.6869V32.2707C35.8663 32.2376 35.8394 32.2107 35.8063 32.2107H34.4782C34.445 32.2107 34.4182 32.1839 34.4182 32.1507V30.9135C34.4182 30.8805 34.4448 30.8537 34.4778 30.8535L35.8066 30.8453C35.8396 30.8451 35.8663 30.8183 35.8663 30.7853V29.8302C35.8663 29.7971 35.8931 29.7702 35.9263 29.7702H36.8808C36.914 29.7702 36.9408 29.7971 36.9408 29.8302V30.7402C36.9408 30.7733 36.9677 30.8002 37.0008 30.8002H37.4488C37.482 30.8002 37.5088 30.7733 37.5088 30.7402V29.8302C37.5088 29.7971 37.5357 29.7702 37.5688 29.7702H38.4569C38.49 29.7702 38.5169 29.7971 38.5169 29.8302V30.7581C38.5169 30.7912 38.5437 30.8181 38.5769 30.8181H39.5658C39.8063 30.8181 40.0468 30.8629 40.272 30.9435C40.4971 31.0241 40.6967 31.1405 40.8707 31.2927C41.0395 31.4405 41.1726 31.6241 41.2698 31.8167C41.367 32.0092 41.4131 32.2197 41.4131 32.4346V32.7347C41.4131 33.1332 41.2442 33.5183 40.9423 33.8138ZM38.962 32.2107C38.1433 32.2018 37.0329 32.1928 37.0329 32.2197V33.6508C37.0329 33.684 37.0598 33.7108 37.0929 33.7108H38.9569C39.177 33.7064 39.3919 33.6258 39.5505 33.4869C39.704 33.3481 39.7961 33.1601 39.7961 32.963C39.7961 32.7705 39.7091 32.5779 39.5556 32.4391C39.397 32.3003 39.1872 32.2152 38.962 32.2107ZM37.0929 36.7424H39.2025C39.4277 36.7424 39.6375 36.6618 39.8012 36.523C39.9547 36.3842 40.0468 36.1961 40.0468 35.9991C40.0468 35.8065 39.9599 35.614 39.8063 35.4752C39.6477 35.3363 39.4379 35.2513 39.2128 35.2468C38.3992 35.2378 37.0329 35.2289 37.0329 35.2557V36.6824C37.0329 36.7156 37.0598 36.7424 37.0929 36.7424Z" fill="url(#paint5_linear_2865_55741)"/>
<path d="M37.1993 57.1255C36.5441 56.977 35.9148 56.7615 35.3172 56.4813C34.7205 56.1989 34.1622 55.8522 33.6498 55.455C32.6229 54.6655 31.8098 53.6447 31.2487 52.5312C30.8633 51.7731 30.6151 50.9668 30.4804 50.1506L32.3133 50.3295L29.7578 44.6983L26.1544 49.7258L28.0852 49.9151C28.3988 51.2044 28.9353 52.4208 29.6817 53.4773C30.5562 54.7169 31.6891 55.7558 32.9793 56.4738C33.62 56.835 34.2982 57.126 34.991 57.3369C35.6858 57.5432 36.3989 57.6763 37.1131 57.7288C37.8254 57.7778 38.5389 57.7461 39.2351 57.6447C39.9314 57.5351 40.6095 57.35 41.2539 57.1015C40.5801 57.2533 39.8929 57.3343 39.2115 57.3394C38.5292 57.3388 37.8527 57.2704 37.1993 57.1255Z" fill="url(#paint6_linear_2865_55741)"/>
<path d="M50.3214 24.0001C50.9826 23.8815 51.6462 23.8346 52.3058 23.8598C52.9653 23.8873 53.6146 23.989 54.2413 24.155C55.4947 24.482 56.6413 25.1052 57.592 25.9119C58.2423 26.4598 58.7852 27.1057 59.2273 27.8049L57.4696 28.3544L62.0178 32.5444L63.3769 26.51L61.525 27.0882C60.7337 26.0231 59.7655 25.112 58.6664 24.4299C57.3779 23.6291 55.9297 23.1139 54.4617 22.9555C53.7309 22.8726 52.9929 22.8689 52.2727 22.9447C51.5525 23.0255 50.8438 23.1809 50.1657 23.4108C49.4905 23.6433 48.8459 23.9505 48.2443 24.3153C47.6457 24.6876 47.0933 25.1223 46.5967 25.6023C47.1581 25.1999 47.7594 24.8575 48.3849 24.5872C49.0135 24.3219 49.6632 24.1212 50.3214 24.0001Z" fill="url(#paint7_linear_2865_55741)"/>
<defs>
<filter id="filter0_ddd_2865_55741" x="0.982759" y="0.111422" width="92.0345" height="84.0345" filterUnits="userSpaceOnUse" color-interpolation-filters="sRGB">
<feFlood flood-opacity="0" result="BackgroundImageFix"/>
<feColorMatrix in="SourceAlpha" type="matrix" values="0 0 0 0 0 0 0 0 0 0 0 0 0 0 0 0 0 0 127 0" result="hardAlpha"/>
<feOffset dy="0.470434"/>
<feGaussianBlur stdDeviation="1.1069"/>
<feColorMatrix type="matrix" values="0 0 0 0 0.0862745 0 0 0 0 0.0235294 0 0 0 0 0.67451 0 0 0 0.0112458 0"/>
<feBlend mode="normal" in2="BackgroundImageFix" result="effect1_dropShadow_2865_55741"/>
<feColorMatrix in="SourceAlpha" type="matrix" values="0 0 0 0 0 0 0 0 0 0 0 0 0 0 0 0 0 0 127 0" result="hardAlpha"/>
<feOffset dy="1.13052"/>
<feGaussianBlur stdDeviation="2.66004"/>
<feColorMatrix type="matrix" values="0 0 0 0 0.0862745 0 0 0 0 0.0235294 0 0 0 0 0.67451 0 0 0 0.0161557 0"/>
<feBlend mode="normal" in2="effect1_dropShadow_2865_55741" result="effect2_dropShadow_2865_55741"/>
<feColorMatrix in="SourceAlpha" type="matrix" values="0 0 0 0 0 0 0 0 0 0 0 0 0 0 0 0 0 0 127 0" result="hardAlpha"/>
<feOffset dy="2.12866"/>
<feGaussianBlur stdDeviation="5.00862"/>
<feColorMatrix type="matrix" values="0 0 0 0 0.0862745 0 0 0 0 0.0235294 0 0 0 0 0.67451 0 0 0 0.02 0"/>
<feBlend mode="normal" in2="effect2_dropShadow_2865_55741" result="effect3_dropShadow_2865_55741"/>
<feBlend mode="normal" in="SourceGraphic" in2="effect3_dropShadow_2865_55741" result="shape"/>
</filter>
<linearGradient id="paint0_linear_2865_55741" x1="54.4588" y1="34.4609" x2="54.4588" y2="63.1885" gradientUnits="userSpaceOnUse">
<stop stop-color="#50E6FE"/>
<stop offset="1" stop-color="#733BFF"/>
</linearGradient>
<linearGradient id="paint1_linear_2865_55741" x1="48.6576" y1="52.3791" x2="50.4902" y2="56.2558" gradientUnits="userSpaceOnUse">
<stop stop-color="#50E6FE"/>
<stop offset="1" stop-color="#733BFF"/>
</linearGradient>
<linearGradient id="paint2_linear_2865_55741" x1="58.5064" y1="41.8769" x2="60.3391" y2="45.7535" gradientUnits="userSpaceOnUse">
<stop stop-color="#50E6FE"/>
<stop offset="1" stop-color="#733BFF"/>
</linearGradient>
<linearGradient id="paint3_linear_2865_55741" x1="54.3732" y1="45.0001" x2="54.3732" y2="52.6495" gradientUnits="userSpaceOnUse">
<stop stop-color="#50E6FE"/>
<stop offset="1" stop-color="#733BFF"/>
</linearGradient>
<linearGradient id="paint4_linear_2865_55741" x1="37.8313" y1="25.7745" x2="37.8313" y2="43.1473" gradientUnits="userSpaceOnUse">
<stop stop-color="#50E6FE"/>
<stop offset="1" stop-color="#733BFF"/>
</linearGradient>
<linearGradient id="paint5_linear_2865_55741" x1="37.8319" y1="27.6855" x2="37.8319" y2="41.2363" gradientUnits="userSpaceOnUse">
<stop stop-color="#50E6FE"/>
<stop offset="1" stop-color="#733BFF"/>
</linearGradient>
<linearGradient id="paint6_linear_2865_55741" x1="28.8128" y1="45.9512" x2="40.3031" y2="57.9105" gradientUnits="userSpaceOnUse">
<stop stop-color="#50E6FE"/>
<stop offset="1" stop-color="#733BFF"/>
</linearGradient>
<linearGradient id="paint7_linear_2865_55741" x1="55.0236" y1="22.9098" x2="54.9118" y2="32.4613" gradientUnits="userSpaceOnUse">
<stop stop-color="#50E6FE"/>
<stop offset="1" stop-color="#733BFF"/>
</linearGradient>
</defs>
</svg>
