<svg width="94" height="85" viewBox="0 0 94 85" fill="none" xmlns="http://www.w3.org/2000/svg">
<g filter="url(#filter0_ddd_2865_2657)">
<path d="M62.2332 8H31.7668C29.795 8 27.9713 9.05814 26.9807 10.766L11.7429 37.2293C10.7524 38.9465 10.7524 41.0535 11.7429 42.7707L26.9807 69.234C27.9713 70.9511 29.795 72 31.7668 72H62.2332C64.205 72 66.0287 70.9419 67.0193 69.234L82.2571 42.7707C83.2476 41.0535 83.2476 38.9465 82.2571 37.2293L67.0193 10.766C66.0287 9.04886 64.205 8 62.2332 8Z" fill="white"/>
</g>
<path fill-rule="evenodd" clip-rule="evenodd" d="M46.2343 24.0829C46.2343 24.8173 45.7532 25.4393 45.089 25.651V28.6697L50.2646 28.6962V27.2964C49.6003 27.0848 49.1192 26.4628 49.1192 25.7284C49.1192 24.8196 49.8558 24.0829 50.7646 24.0829C51.6733 24.0829 52.41 24.8196 52.41 25.7284C52.41 26.4628 51.9289 27.0848 51.2646 27.2964V28.7014L51.6603 28.7034C52.3616 28.707 53.0097 29.0776 53.3685 29.6801L54.465 31.5214V30.2249V29.7249H54.965H62.1382C62.3498 29.0606 62.9718 28.5795 63.7062 28.5795C64.615 28.5795 65.3517 29.3162 65.3517 30.2249C65.3517 31.1336 64.615 31.8703 63.7062 31.8703C62.9718 31.8703 62.3498 31.3892 62.1381 30.7249H55.465V33.2007L58.6909 38.6181C58.9855 39.1129 59.0497 39.7047 58.8799 40.2429H61.809H62.309V40.7429V43.2252H64.5601C64.7718 42.561 65.3938 42.0798 66.1282 42.0798C67.037 42.0798 67.7737 42.8165 67.7737 43.7252C67.7737 44.634 67.037 45.3707 66.1282 45.3707C65.3938 45.3707 64.7718 44.8895 64.5601 44.2252H61.809H61.309V43.7252V41.2429H58.3837L56.3316 45.0764H58.3124H58.8124V45.5764V50.6297H61.7835C61.9951 49.9654 62.6171 49.4842 63.3516 49.4842C64.2603 49.4842 64.997 50.2209 64.997 51.1297C64.997 52.0384 64.2603 52.7751 63.3516 52.7751C62.6171 52.7751 61.9951 52.294 61.7835 51.6297H58.3124H57.8124V51.1297V46.0764H55.7963L54.0475 49.3435C53.6976 49.997 53.0151 50.4034 52.2739 50.3996L51.9222 50.3978V55.5263C52.5865 55.7379 53.0676 56.3599 53.0676 57.0944C53.0676 58.0031 52.3309 58.7398 51.4222 58.7398C50.5135 58.7398 49.7768 58.0031 49.7768 57.0944C49.7768 56.3599 50.2579 55.7379 50.9222 55.5263V50.3927L47.9115 50.3772V53.8808C48.5757 54.0925 49.0569 54.7145 49.0569 55.4489C49.0569 56.3577 48.3202 57.0944 47.4115 57.0944C46.5027 57.0944 45.766 56.3577 45.766 55.4489C45.766 54.7145 46.2472 54.0925 46.9115 53.8808V50.3721L43.5922 50.3551V56.349C44.2565 56.5606 44.7376 57.1827 44.7376 57.9171C44.7376 58.8258 44.001 59.5625 43.0922 59.5625C42.1835 59.5625 41.4468 58.8258 41.4468 57.9171C41.4468 57.1827 41.9279 56.5606 42.5922 56.349V50.3499L42.3399 50.3486C41.6387 50.345 40.9905 49.9744 40.6318 49.3719L37.6561 44.3749H37.1133V50.2041V50.7041H36.6133H34.0678C33.8562 51.3684 33.2342 51.8496 32.4998 51.8496C31.591 51.8496 30.8543 51.1129 30.8543 50.2041C30.8543 49.2954 31.591 48.5587 32.4998 48.5587C33.2342 48.5587 33.8562 49.0398 34.0678 49.7041H36.1133V43.8749V43.3749H36.6133H37.0606L35.6073 40.9344H34.5424V43.0054V43.5054H34.0424H29.4401C29.2284 44.1696 28.6064 44.6508 27.872 44.6508C26.9632 44.6508 26.2266 43.9141 26.2266 43.0054C26.2266 42.0966 26.9632 41.3599 27.872 41.3599C28.6064 41.3599 29.2284 41.8411 29.4401 42.5054H33.5424V40.4344V39.9344H34.0424H35.0975C34.9656 39.4482 35.0205 38.9227 35.2645 38.4668L37.3337 34.6013V32.8561H30.8949C30.6099 33.3462 30.0791 33.6757 29.4714 33.6757C28.5626 33.6757 27.8259 32.939 27.8259 32.0302C27.8259 31.1215 28.5626 30.3848 29.4714 30.3848C30.3213 30.3848 31.0207 31.0292 31.1077 31.8561H37.8337H38.3337V32.3561V32.7332L39.9528 29.7085C40.3026 29.0551 40.9851 28.6486 41.7263 28.6524L44.089 28.6646V25.651C43.4247 25.4394 42.9435 24.8174 42.9435 24.0829C42.9435 23.1742 43.6802 22.4375 44.5889 22.4375C45.4976 22.4375 46.2343 23.1742 46.2343 24.0829Z" fill="url(#paint0_linear_2865_2657)"/>
<defs>
<filter id="filter0_ddd_2865_2657" x="0.982759" y="0.111422" width="92.0345" height="84.0345" filterUnits="userSpaceOnUse" color-interpolation-filters="sRGB">
<feFlood flood-opacity="0" result="BackgroundImageFix"/>
<feColorMatrix in="SourceAlpha" type="matrix" values="0 0 0 0 0 0 0 0 0 0 0 0 0 0 0 0 0 0 127 0" result="hardAlpha"/>
<feOffset dy="0.470434"/>
<feGaussianBlur stdDeviation="1.1069"/>
<feColorMatrix type="matrix" values="0 0 0 0 0.0862745 0 0 0 0 0.0235294 0 0 0 0 0.67451 0 0 0 0.0112458 0"/>
<feBlend mode="normal" in2="BackgroundImageFix" result="effect1_dropShadow_2865_2657"/>
<feColorMatrix in="SourceAlpha" type="matrix" values="0 0 0 0 0 0 0 0 0 0 0 0 0 0 0 0 0 0 127 0" result="hardAlpha"/>
<feOffset dy="1.13052"/>
<feGaussianBlur stdDeviation="2.66004"/>
<feColorMatrix type="matrix" values="0 0 0 0 0.0862745 0 0 0 0 0.0235294 0 0 0 0 0.67451 0 0 0 0.0161557 0"/>
<feBlend mode="normal" in2="effect1_dropShadow_2865_2657" result="effect2_dropShadow_2865_2657"/>
<feColorMatrix in="SourceAlpha" type="matrix" values="0 0 0 0 0 0 0 0 0 0 0 0 0 0 0 0 0 0 127 0" result="hardAlpha"/>
<feOffset dy="2.12866"/>
<feGaussianBlur stdDeviation="5.00862"/>
<feColorMatrix type="matrix" values="0 0 0 0 0.0862745 0 0 0 0 0.0235294 0 0 0 0 0.67451 0 0 0 0.02 0"/>
<feBlend mode="normal" in2="effect2_dropShadow_2865_2657" result="effect3_dropShadow_2865_2657"/>
<feBlend mode="normal" in="SourceGraphic" in2="effect3_dropShadow_2865_2657" result="shape"/>
</filter>
<linearGradient id="paint0_linear_2865_2657" x1="47.0001" y1="22.4375" x2="47.0001" y2="59.5625" gradientUnits="userSpaceOnUse">
<stop stop-color="#50E6FE"/>
<stop offset="1" stop-color="#733BFF"/>
</linearGradient>
</defs>
</svg>
