<svg width="94" height="85" viewBox="0 0 94 85" fill="none" xmlns="http://www.w3.org/2000/svg">
<g filter="url(#filter0_ddd_2865_2723)">
<path d="M62.2332 8H31.7668C29.795 8 27.9713 9.05814 26.9807 10.766L11.7429 37.2293C10.7524 38.9465 10.7524 41.0535 11.7429 42.7707L26.9807 69.234C27.9713 70.9511 29.795 72 31.7668 72H62.2332C64.205 72 66.0287 70.9419 67.0193 69.234L82.2571 42.7707C83.2476 41.0535 83.2476 38.9465 82.2571 37.2293L67.0193 10.766C66.0287 9.04886 64.205 8 62.2332 8Z" fill="white"/>
</g>
<path fill-rule="evenodd" clip-rule="evenodd" d="M47.0003 58.5C55.6093 58.5 62.5883 50.2173 62.5883 40C62.5883 29.7827 55.6093 21.5 47.0003 21.5C38.3912 21.5 31.4122 29.7827 31.4122 40C31.4122 50.2173 38.3912 58.5 47.0003 58.5ZM41.5189 29.7744C42.6758 29.0248 46.3995 27.8481 51.4152 29.8201C51.6722 29.9211 51.9625 29.7947 52.0635 29.5377C52.1646 29.2807 52.0381 28.9905 51.7811 28.8894C46.4898 26.8091 42.4243 27.9962 40.9751 28.9351C40.7434 29.0853 40.6772 29.3949 40.8274 29.6266C40.9775 29.8584 41.2871 29.9245 41.5189 29.7744ZM43.8768 35.4258C45.4365 34.7249 48.8543 34.3038 51.1046 37.549C51.1676 37.6397 51.2311 37.7325 51.2955 37.8267L51.2959 37.8273L51.296 37.8274C51.6932 38.4079 52.1265 39.0411 52.6794 39.5666C53.3324 40.1871 54.2575 41.0145 55.3626 41.8876C55.5793 42.0588 55.8937 42.022 56.0649 41.8053C56.2361 41.5886 56.1992 41.2742 55.9826 41.103C54.9045 40.2512 54.0024 39.4443 53.3683 38.8417C52.8983 38.395 52.5311 37.8597 52.1299 37.2748L52.1299 37.2748C52.0632 37.1776 51.9956 37.079 51.9264 36.9792C49.2954 33.185 45.2696 33.7025 43.4644 34.5148L43.4644 34.5148L43.4604 34.5166C41.4704 35.4332 40.5048 37.0873 40.1071 38.7366C39.7141 40.3665 39.8646 42.0222 40.1265 43.0667C40.36 44.1864 40.0993 44.9052 39.7385 45.3614C39.3607 45.8392 38.8312 46.0811 38.4766 46.1535C38.2061 46.2087 38.0315 46.4728 38.0867 46.7434C38.1419 47.0139 38.406 47.1885 38.6766 47.1333C39.2213 47.0221 39.9748 46.6748 40.5229 45.9817C41.087 45.2683 41.3948 44.2371 41.1031 42.8514L41.1011 42.8417L41.0986 42.8321C40.8665 41.9121 40.7302 40.4184 41.0792 38.971C41.4247 37.5385 42.2342 36.1832 43.8768 35.4258ZM38.7461 42.2543C38.7395 41.9782 38.5104 41.7597 38.2344 41.7663C37.9583 41.7729 37.7398 42.002 37.7464 42.2781C37.7617 42.9187 37.889 43.4076 38.0367 43.7726C38.1564 44.0682 38.2963 44.291 38.3621 44.3959L38.3621 44.3959L38.3622 44.396L38.3622 44.3961C38.3753 44.417 38.3855 44.4332 38.392 44.4443C38.5306 44.6831 38.8366 44.7643 39.0754 44.6257C39.3142 44.487 39.3954 44.181 39.2568 43.9422C39.237 43.9081 39.2161 43.8744 39.1941 43.8391C39.1248 43.7276 39.0459 43.6005 38.9636 43.3974C38.8595 43.14 38.7584 42.7699 38.7461 42.2543ZM43.9 33.1541C39.784 34.7716 38.7273 38.7715 38.7187 40.5617C38.7174 40.8378 38.4925 41.0606 38.2163 41.0593C37.9402 41.058 37.7174 40.833 37.7187 40.5569C37.7285 38.5307 38.8987 34.0403 43.5422 32.2203L43.5493 32.2175L43.5565 32.2149C44.519 31.8712 46.0949 31.5764 47.75 31.7893C49.4159 32.0036 51.1911 32.7381 52.4695 34.4825L52.4763 34.4918L52.4827 34.5014C52.8744 35.0912 53.5286 36.0066 54.2118 36.8279C54.5536 37.2387 54.8967 37.6189 55.2134 37.9209C55.5396 38.232 55.8022 38.4254 55.9831 38.5045C56.2361 38.6152 56.3515 38.91 56.2408 39.163C56.1301 39.416 55.8353 39.5314 55.5823 39.4207C55.2346 39.2686 54.8682 38.9735 54.5232 38.6445C54.1687 38.3064 53.7985 37.8947 53.443 37.4675C52.7357 36.6172 52.0636 35.6772 51.6562 35.0645C50.5786 33.5999 49.0855 32.9693 47.6224 32.7811C46.1498 32.5917 44.737 32.8565 43.9 33.1541ZM39.0822 33.7126C40.0716 32.6371 41.9771 31.3249 44.4333 30.9431C46.8671 30.5648 49.8871 31.0924 53.1539 33.7613C53.3677 33.936 53.6827 33.9043 53.8574 33.6904C54.0321 33.4766 54.0004 33.1616 53.7866 32.9869C50.314 30.1498 47.0114 29.5303 44.2797 29.955C41.5703 30.3761 39.4675 31.8168 38.3463 33.0355C38.1593 33.2388 38.1725 33.5551 38.3757 33.742C38.579 33.929 38.8953 33.9158 39.0822 33.7126ZM54.3219 33.8217C54.5612 33.6839 54.8669 33.7662 55.0047 34.0055C55.1865 34.3212 55.4192 34.7659 55.624 35.1907C55.8239 35.6054 56.0155 36.0383 56.0972 36.3163C56.1751 36.5812 56.0235 36.8591 55.7586 36.9371C55.4937 37.015 55.2158 36.8634 55.1379 36.5985C55.082 36.4085 54.9248 36.043 54.7232 35.6249C54.5265 35.2169 54.3051 34.7945 54.1381 34.5045C54.0003 34.2652 54.0826 33.9595 54.3219 33.8217ZM47.2764 39.1869C46.5976 38.7572 45.8337 38.9088 45.4568 39.0959C45.1047 39.3168 44.9068 39.563 44.8036 39.8163C44.6974 40.077 44.6736 40.3897 44.7456 40.7647C44.8934 41.5341 45.4257 42.4695 46.2302 43.4798C47.827 45.4851 50.3198 47.5711 52.1383 48.8804C52.3624 49.0418 52.4132 49.3543 52.2519 49.5784C52.0905 49.8025 51.778 49.8533 51.5539 49.692C49.7018 48.3584 47.1263 46.2104 45.448 44.1027C44.6149 43.0566 43.958 41.9658 43.7636 40.9533C43.6645 40.4374 43.6814 39.9203 43.8775 39.4389C44.075 38.9542 44.4363 38.5501 44.9491 38.2341L44.9655 38.224L44.9826 38.2152C45.5563 37.9198 46.7295 37.6572 47.8112 38.3419C48.224 38.6031 48.505 38.9675 48.7252 39.3156C48.8338 39.4874 48.9334 39.665 49.0257 39.8294L49.0295 39.8362C49.1251 40.0066 49.2132 40.1632 49.3067 40.3109C50.1107 41.5799 51.8205 43.6123 54.7989 45.6528C55.0267 45.8089 55.0849 46.12 54.9288 46.3479C54.7728 46.5757 54.4616 46.6338 54.2338 46.4778C51.1505 44.3655 49.3429 42.2366 48.462 40.846C48.3527 40.6734 48.2525 40.4949 48.1597 40.3296L48.1596 40.3295L48.1574 40.3256C48.0618 40.1551 47.9736 39.9982 47.88 39.8501C47.6926 39.5539 47.5071 39.3328 47.2764 39.1869ZM46.3061 39.8704C46.5802 39.8365 46.8298 40.0311 46.8638 40.3052C46.92 40.7595 47.1903 41.3306 47.6584 41.9846C48.1194 42.6286 48.7385 43.3072 49.427 43.9709C50.8035 45.2981 52.4154 46.5264 53.4763 47.2487C53.7046 47.4041 53.7636 47.7151 53.6082 47.9434C53.4528 48.1716 53.1418 48.2307 52.9135 48.0753C51.8179 47.3293 50.1593 46.0662 48.7329 44.6908C48.0198 44.0034 47.3543 43.2779 46.8453 42.5666C46.3434 41.8654 45.9582 41.13 45.8713 40.428C45.8374 40.154 46.0321 39.9043 46.3061 39.8704ZM45.8211 51.7817C45.8384 51.2923 45.9076 50.7523 46.0429 50.2848C46.1829 49.8014 46.3715 49.4726 46.5725 49.3141C46.6631 49.2427 46.7549 49.2064 46.8582 49.1997C46.966 49.1927 47.1202 49.216 47.3327 49.3199C47.7711 49.5343 48.3764 50.0519 49.1645 51.0776C49.3328 51.2965 49.6467 51.3376 49.8656 51.1694C50.0846 51.0011 50.1257 50.6872 49.9575 50.4683C49.1378 49.4016 48.4185 48.7377 47.772 48.4216C47.442 48.2602 47.1138 48.181 46.7935 48.2018C46.4688 48.2228 46.1871 48.3446 45.9533 48.5289C45.5055 48.882 45.2418 49.456 45.0824 50.0067C44.9183 50.5733 44.8411 51.1987 44.8217 51.7463C44.812 52.0223 45.0278 52.2539 45.3037 52.2637C45.5797 52.2734 45.8113 52.0576 45.8211 51.7817ZM44.3574 44.77C44.6318 44.7393 44.8791 44.9369 44.9098 45.2113C45.3068 48.7607 43.5352 50.6344 42.4503 51.143C42.2003 51.2602 41.9025 51.1525 41.7853 50.9025C41.6681 50.6525 41.7758 50.3547 42.0259 50.2375C42.7028 49.9202 44.2679 48.4684 43.916 45.3225C43.8853 45.048 44.0829 44.8007 44.3574 44.77ZM44.4437 37.4308C45.0979 36.9257 47.0245 36.2068 49.1399 37.9276C49.1656 37.9538 49.1918 37.9796 49.2186 38.0059C49.312 38.0975 49.4129 38.1967 49.5281 38.3485C49.7795 38.6796 49.9771 39.0494 50.196 39.4589L50.1963 39.4594C50.2494 39.5588 50.3038 39.6606 50.3605 39.7647C50.6386 40.2752 50.9669 40.8282 51.4549 41.2685L54.9247 44.3993C55.1297 44.5843 55.4459 44.568 55.6309 44.363C55.8159 44.158 55.7996 43.8418 55.5946 43.6568L52.1248 40.526C51.7722 40.2079 51.511 39.7862 51.2387 39.2863C51.1913 39.1993 51.1432 39.1091 51.0939 39.0168C50.8729 38.6023 50.629 38.1448 50.3247 37.7439C50.1584 37.5248 49.9783 37.3489 49.8868 37.2596C49.8658 37.2391 49.8495 37.2232 49.8391 37.2123L49.8186 37.1909L49.7956 37.1721C47.2507 35.0834 44.791 35.8987 43.8319 36.6399L43.8313 36.6404C42.6925 37.5232 42.2546 38.9257 42.1339 40.2225C42.0135 41.5155 42.1977 42.7997 42.409 43.6085C42.6941 45.3991 42.3237 46.4781 41.8306 47.1111C41.3261 47.7586 40.6405 48.0084 40.1885 48.0445C39.9133 48.0666 39.708 48.3076 39.73 48.5828C39.752 48.8581 39.993 49.0634 40.2683 49.0414C40.9634 48.9857 41.9213 48.6216 42.6194 47.7257C43.3267 46.8179 43.7169 45.4305 43.3924 43.4251L43.3884 43.4008L43.3821 43.3769C43.1923 42.6608 43.0209 41.483 43.1296 40.3152C43.2392 39.1382 43.6226 38.0676 44.4437 37.4308Z" fill="url(#paint0_linear_2865_2723)"/>
<defs>
<filter id="filter0_ddd_2865_2723" x="0.982759" y="0.111422" width="92.0345" height="84.0345" filterUnits="userSpaceOnUse" color-interpolation-filters="sRGB">
<feFlood flood-opacity="0" result="BackgroundImageFix"/>
<feColorMatrix in="SourceAlpha" type="matrix" values="0 0 0 0 0 0 0 0 0 0 0 0 0 0 0 0 0 0 127 0" result="hardAlpha"/>
<feOffset dy="0.470434"/>
<feGaussianBlur stdDeviation="1.1069"/>
<feColorMatrix type="matrix" values="0 0 0 0 0.0862745 0 0 0 0 0.0235294 0 0 0 0 0.67451 0 0 0 0.0112458 0"/>
<feBlend mode="normal" in2="BackgroundImageFix" result="effect1_dropShadow_2865_2723"/>
<feColorMatrix in="SourceAlpha" type="matrix" values="0 0 0 0 0 0 0 0 0 0 0 0 0 0 0 0 0 0 127 0" result="hardAlpha"/>
<feOffset dy="1.13052"/>
<feGaussianBlur stdDeviation="2.66004"/>
<feColorMatrix type="matrix" values="0 0 0 0 0.0862745 0 0 0 0 0.0235294 0 0 0 0 0.67451 0 0 0 0.0161557 0"/>
<feBlend mode="normal" in2="effect1_dropShadow_2865_2723" result="effect2_dropShadow_2865_2723"/>
<feColorMatrix in="SourceAlpha" type="matrix" values="0 0 0 0 0 0 0 0 0 0 0 0 0 0 0 0 0 0 127 0" result="hardAlpha"/>
<feOffset dy="2.12866"/>
<feGaussianBlur stdDeviation="5.00862"/>
<feColorMatrix type="matrix" values="0 0 0 0 0.0862745 0 0 0 0 0.0235294 0 0 0 0 0.67451 0 0 0 0.02 0"/>
<feBlend mode="normal" in2="effect2_dropShadow_2865_2723" result="effect3_dropShadow_2865_2723"/>
<feBlend mode="normal" in="SourceGraphic" in2="effect3_dropShadow_2865_2723" result="shape"/>
</filter>
<linearGradient id="paint0_linear_2865_2723" x1="47.0003" y1="21.5" x2="47.0003" y2="58.5" gradientUnits="userSpaceOnUse">
<stop stop-color="#50E6FE"/>
<stop offset="1" stop-color="#733BFF"/>
</linearGradient>
</defs>
</svg>
