<svg width="484" height="252" viewBox="0 0 484 252" fill="none" xmlns="http://www.w3.org/2000/svg">
<g filter="url(#filter0_dddddd_2656_51052)">
<path d="M324 66.8048L343.227 65.1226L344.904 84.291L325.677 85.9732L324 66.8048ZM342.362 66.1509L325.031 67.6672L326.542 84.9448L343.873 83.4286L342.362 66.1509Z" fill="#99FFFF"/>
<path d="M347.494 97.2937L359.08 96.2801L360.09 107.83L348.505 108.843L347.494 97.2937ZM358.214 97.3078L348.525 98.1555L349.37 107.815L359.059 106.967L358.214 97.3078Z" fill="#99FFFF"/>
<path opacity="0.3" d="M368.434 73.8036L358.034 74.7134L357.127 64.3448L367.527 63.435L368.434 73.8036ZM358.899 73.6852L367.403 72.9411L366.661 64.4633L358.157 65.2073L358.899 73.6852Z" fill="#EF4AF0"/>
<path d="M125.325 136.847L106.098 138.529L104.421 119.361L123.648 117.678L125.325 136.847ZM106.963 137.501L124.294 135.984L122.782 118.707L105.451 120.223L106.963 137.501Z" fill="#99FFFF"/>
<path d="M101.831 106.358L90.245 107.372L89.2345 95.8218L100.82 94.8082L101.831 106.358ZM91.1104 106.344L100.8 105.496L99.955 95.8365L90.2653 96.6842L91.1104 106.344Z" fill="#99FFFF"/>
<path opacity="0.3" d="M80.8909 129.848L91.291 128.938L92.1982 139.307L81.7981 140.217L80.8909 129.848ZM90.4262 129.966L81.9218 130.71L82.6635 139.188L91.1679 138.444L90.4262 129.966Z" fill="#EF4AF0"/>
<rect width="132" height="34" transform="translate(110 96.5046) rotate(-5)" fill="white"/>
<path d="M136.264 117.295L134.996 114.37L130.836 114.734L130.127 117.831L128.294 117.992L131.114 106.534L133.378 106.336L138.145 117.13L136.264 117.295ZM132.391 108.093L132.311 108.1L131.131 113.15L134.415 112.863L132.391 108.093ZM144.037 116.807C142.581 116.935 141.396 116.546 140.482 115.641C139.566 114.725 139.027 113.332 138.863 111.462C138.782 110.527 138.816 109.694 138.966 108.963C139.116 108.233 139.372 107.605 139.733 107.081C140.094 106.557 140.551 106.148 141.103 105.853C141.665 105.547 142.308 105.362 143.03 105.299C143.997 105.215 144.823 105.356 145.509 105.725C146.205 106.092 146.775 106.674 147.219 107.47L145.778 108.432C145.54 107.917 145.206 107.523 144.775 107.251C144.354 106.966 143.819 106.852 143.171 106.909C142.31 106.984 141.661 107.336 141.223 107.963C140.786 108.59 140.612 109.419 140.702 110.45L140.85 112.139C140.94 113.17 141.255 113.956 141.795 114.498C142.335 115.04 143.035 115.273 143.896 115.197C144.566 115.139 145.093 114.921 145.477 114.545C145.872 114.157 146.146 113.684 146.301 113.124L147.828 113.874C147.526 114.714 147.061 115.392 146.432 115.907C145.802 116.423 145.004 116.723 144.037 116.807ZM154.255 115.913C152.8 116.041 151.615 115.652 150.7 114.747C149.785 113.831 149.245 112.438 149.082 110.568C149 109.633 149.034 108.8 149.184 108.069C149.335 107.339 149.59 106.711 149.951 106.187C150.312 105.663 150.769 105.254 151.322 104.959C151.884 104.653 152.526 104.468 153.249 104.405C154.216 104.321 155.042 104.462 155.727 104.831C156.423 105.198 156.993 105.78 157.438 106.576L155.996 107.538C155.758 107.023 155.424 106.629 154.993 106.357C154.572 106.072 154.038 105.958 153.389 106.015C152.529 106.09 151.88 106.442 151.442 107.069C151.004 107.696 150.83 108.525 150.921 109.556L151.068 111.245C151.159 112.276 151.474 113.062 152.014 113.604C152.554 114.146 153.254 114.379 154.115 114.303C154.784 114.245 155.311 114.027 155.696 113.651C156.09 113.263 156.365 112.79 156.519 112.23L158.046 112.98C157.745 113.82 157.28 114.498 156.65 115.013C156.021 115.529 155.222 115.829 154.255 115.913ZM160.483 115.176L159.51 104.05L166.635 103.427L166.774 105.021L161.451 105.486L161.721 108.579L166.551 108.156L166.69 109.75L161.861 110.173L162.145 113.424L167.469 112.958L167.608 114.552L160.483 115.176ZM170.251 114.321L169.277 103.196L171.078 103.038L171.912 112.57L176.439 112.174L176.578 113.768L170.251 114.321ZM178.741 113.578L177.768 102.453L184.893 101.829L185.032 103.423L179.708 103.889L179.979 106.981L184.809 106.559L184.948 108.153L180.118 108.575L180.403 111.827L185.727 111.361L185.866 112.955L178.741 113.578ZM190.309 112.566L188.508 112.724L187.535 101.598L192.333 101.179C193.331 101.091 194.144 101.325 194.771 101.881C195.397 102.426 195.755 103.213 195.845 104.244C195.915 105.041 195.787 105.721 195.462 106.285C195.146 106.838 194.641 107.251 193.948 107.526L196.765 112.001L194.756 112.177L192.132 107.878L189.916 108.071L190.309 112.566ZM192.653 106.306C193.11 106.266 193.455 106.118 193.69 105.862C193.924 105.595 194.021 105.239 193.982 104.793L193.915 104.027C193.876 103.581 193.719 103.252 193.443 103.041C193.167 102.819 192.8 102.728 192.343 102.768L189.474 103.019L189.784 106.557L192.653 106.306ZM206.221 111.174L204.953 108.249L200.793 108.613L200.084 111.711L198.251 111.871L201.072 100.414L203.335 100.216L208.102 111.01L206.221 111.174ZM202.348 101.973L202.269 101.98L201.088 107.03L204.372 106.742L202.348 101.973ZM212.395 101.029L213.229 110.561L211.428 110.719L210.594 101.187L207.279 101.477L207.139 99.8831L215.571 99.1454L215.711 100.739L212.395 101.029ZM218.619 110.089L217.646 98.964L224.77 98.3406L224.91 99.9345L219.586 100.4L219.857 103.492L224.686 103.07L224.826 104.664L219.996 105.086L220.281 108.338L225.604 107.872L225.744 109.466L218.619 110.089Z" fill="#44414C"/>
<rect width="223" height="34" transform="translate(178 120.436) rotate(-5)" fill="#EF4AF0"/>
<path d="M201.587 141.653C200.854 141.717 200.179 141.658 199.564 141.476C198.958 141.283 198.422 140.966 197.955 140.525C197.499 140.083 197.128 139.521 196.844 138.839C196.558 138.147 196.375 137.333 196.293 136.398C196.211 135.463 196.25 134.624 196.41 133.882C196.569 133.13 196.834 132.491 197.206 131.966C197.587 131.429 198.059 131.008 198.621 130.701C199.194 130.394 199.847 130.209 200.58 130.145C201.579 130.057 202.426 130.197 203.122 130.565C203.818 130.932 204.401 131.529 204.869 132.355L203.152 133.469C202.949 132.984 202.653 132.608 202.266 132.342C201.878 132.066 201.37 131.955 200.743 132.01C199.957 132.078 199.353 132.399 198.932 132.971C198.522 133.542 198.358 134.306 198.442 135.262L198.595 137.016C198.68 137.983 198.974 138.707 199.476 139.187C199.988 139.656 200.637 139.857 201.424 139.788C202.051 139.733 202.546 139.518 202.909 139.144C203.283 138.769 203.539 138.323 203.676 137.808L205.469 138.663C205.138 139.527 204.658 140.222 204.029 140.748C203.4 141.264 202.586 141.565 201.587 141.653ZM209.9 140.733L207.796 140.917L206.823 129.791L211.844 129.352C212.354 129.307 212.817 129.347 213.235 129.471C213.653 129.595 214.013 129.799 214.317 130.083C214.63 130.356 214.879 130.698 215.065 131.11C215.262 131.521 215.383 131.987 215.428 132.508C215.495 133.273 215.377 133.947 215.075 134.53C214.783 135.112 214.302 135.551 213.632 135.845L216.308 140.172L213.964 140.377L211.517 136.271L209.525 136.445L209.9 140.733ZM212.08 134.439C212.484 134.403 212.793 134.269 213.008 134.036C213.222 133.793 213.312 133.469 213.277 133.065L213.212 132.332C213.177 131.928 213.033 131.63 212.781 131.438C212.529 131.246 212.2 131.168 211.797 131.203L209.087 131.44L209.37 134.676L212.08 134.439ZM220.739 139.784L220.357 135.417L215.956 128.992L218.315 128.786L221.292 133.263L221.324 133.261L223.415 128.34L225.711 128.139L222.475 135.216L222.859 139.599L220.739 139.784ZM228.466 139.108L227.493 127.983L232.498 127.545C233.008 127.5 233.472 127.545 233.891 127.68C234.319 127.803 234.691 128.006 235.004 128.289C235.317 128.562 235.567 128.904 235.753 129.316C235.939 129.728 236.054 130.189 236.099 130.699C236.144 131.22 236.111 131.699 236 132.137C235.887 132.565 235.701 132.945 235.441 133.278C235.18 133.601 234.85 133.865 234.45 134.072C234.06 134.266 233.61 134.386 233.1 134.431L230.2 134.684L230.57 138.924L228.466 139.108ZM230.041 132.867L232.75 132.63C233.154 132.595 233.463 132.461 233.679 132.228C233.893 131.984 233.982 131.661 233.947 131.257L233.883 130.524C233.848 130.12 233.704 129.822 233.451 129.63C233.199 129.438 232.871 129.359 232.467 129.395L229.757 129.632L230.041 132.867ZM242.553 128.544L243.364 137.805L241.26 137.989L240.449 128.728L237.293 129.005L237.13 127.14L245.546 126.403L245.709 128.268L242.553 128.544ZM252.556 137.193C251.823 137.258 251.148 137.194 250.531 137.001C249.915 136.809 249.373 136.487 248.905 136.035C248.448 135.583 248.071 135.011 247.775 134.319C247.479 133.628 247.29 132.809 247.207 131.863C247.125 130.928 247.17 130.095 247.341 129.362C247.512 128.619 247.783 127.985 248.155 127.46C248.537 126.934 249.015 126.523 249.589 126.226C250.162 125.93 250.816 125.75 251.549 125.685C252.282 125.621 252.957 125.685 253.574 125.878C254.19 126.07 254.732 126.392 255.2 126.844C255.668 127.295 256.045 127.873 256.331 128.576C256.627 129.267 256.816 130.08 256.898 131.016C256.981 131.961 256.936 132.8 256.765 133.533C256.604 134.264 256.332 134.893 255.95 135.419C255.568 135.945 255.09 136.356 254.516 136.653C253.943 136.949 253.289 137.129 252.556 137.193ZM252.393 135.329C253.19 135.259 253.799 134.938 254.22 134.366C254.651 133.793 254.825 133.028 254.742 132.071L254.591 130.35C254.508 129.394 254.203 128.671 253.679 128.181C253.165 127.691 252.509 127.481 251.712 127.55C250.915 127.62 250.301 127.941 249.869 128.515C249.448 129.087 249.279 129.851 249.363 130.807L249.514 132.529C249.597 133.485 249.896 134.209 250.41 134.699C250.935 135.188 251.596 135.398 252.393 135.329ZM270.809 135.404L269.668 132.645L265.716 132.991L265.087 135.904L262.951 136.091L265.708 124.639L268.322 124.411L272.993 135.213L270.809 135.404ZM267.166 126.439L267.086 126.446L266.068 131.145L269.001 130.888L267.166 126.439ZM274.489 135.082L274.341 133.392L275.808 133.264L275.13 125.518L273.664 125.646L273.516 123.956L278.569 123.514L278.716 125.204L277.234 125.334L277.912 133.08L279.394 132.95L279.542 134.64L274.489 135.082ZM285.633 134.107L285.486 132.417L286.952 132.289L286.274 124.543L284.808 124.671L284.66 122.981L289.713 122.539L289.861 124.229L288.378 124.359L289.056 132.105L290.538 131.975L290.686 133.665L285.633 134.107ZM295.843 127.464L294.493 125.253L294.445 125.257L295.147 133.275L293.154 133.449L292.181 122.323L294.492 122.121L298.339 127.534L299.688 129.745L299.736 129.741L299.035 121.724L301.027 121.549L302.001 132.675L299.689 132.877L295.843 127.464ZM307.618 126.434L306.268 124.223L306.22 124.227L306.922 132.244L304.929 132.419L303.956 121.293L306.267 121.091L310.114 126.504L311.463 128.715L311.511 128.711L310.81 120.694L312.802 120.519L313.776 131.645L311.464 131.847L307.618 126.434ZM321.088 131.198C320.355 131.262 319.68 131.198 319.064 131.005C318.448 130.813 317.905 130.491 317.438 130.039C316.98 129.587 316.604 129.015 316.308 128.323C316.012 127.632 315.822 126.813 315.74 125.868C315.658 124.932 315.703 124.099 315.874 123.366C316.045 122.623 316.316 121.989 316.687 121.464C317.07 120.938 317.548 120.527 318.121 120.231C318.695 119.934 319.348 119.754 320.082 119.69C320.815 119.625 321.49 119.69 322.106 119.882C322.723 120.074 323.265 120.396 323.732 120.848C324.2 121.299 324.577 121.877 324.864 122.58C325.16 123.271 325.349 124.085 325.431 125.02C325.513 125.965 325.469 126.804 325.297 127.537C325.137 128.268 324.865 128.897 324.483 129.423C324.1 129.949 323.622 130.36 323.049 130.657C322.475 130.953 321.822 131.134 321.088 131.198ZM320.925 129.333C321.722 129.263 322.331 128.942 322.752 128.37C323.184 127.797 323.358 127.032 323.274 126.076L323.124 124.354C323.04 123.398 322.736 122.675 322.211 122.185C321.697 121.695 321.042 121.485 320.245 121.554C319.448 121.624 318.834 121.946 318.402 122.519C317.981 123.091 317.812 123.855 317.896 124.812L318.046 126.533C318.13 127.489 318.429 128.213 318.943 128.703C319.468 129.193 320.128 129.402 320.925 129.333ZM330.548 130.177L325.94 119.37L328.092 119.182L330.272 124.452L331.584 128.063L331.631 128.059L332.28 124.276L333.512 118.707L335.6 118.525L332.939 129.968L330.548 130.177ZM344.541 128.953L343.4 126.194L339.447 126.54L338.819 129.454L336.683 129.641L339.439 118.189L342.053 117.96L346.724 128.762L344.541 128.953ZM340.898 119.989L340.818 119.995L339.799 124.694L342.732 124.438L340.898 119.989ZM351.197 119.039L352.007 128.3L349.903 128.484L349.093 119.223L345.937 119.499L345.774 117.635L354.19 116.898L354.353 118.763L351.197 119.039ZM356.665 127.892L356.517 126.203L357.983 126.075L357.306 118.328L355.839 118.456L355.691 116.767L360.744 116.325L360.892 118.014L359.409 118.144L360.087 125.89L361.57 125.761L361.717 127.45L356.665 127.892ZM368.57 127.044C367.836 127.108 367.162 127.044 366.545 126.851C365.929 126.659 365.387 126.337 364.919 125.885C364.462 125.433 364.085 124.861 363.789 124.169C363.493 123.478 363.303 122.659 363.221 121.713C363.139 120.778 363.184 119.945 363.355 119.212C363.526 118.469 363.797 117.835 364.169 117.31C364.551 116.784 365.029 116.373 365.602 116.076C366.176 115.78 366.83 115.6 367.563 115.536C368.296 115.471 368.971 115.535 369.587 115.728C370.204 115.92 370.746 116.242 371.214 116.694C371.681 117.145 372.059 117.723 372.345 118.426C372.641 119.117 372.83 119.931 372.912 120.866C372.994 121.811 372.95 122.65 372.779 123.383C372.618 124.114 372.346 124.743 371.964 125.269C371.582 125.795 371.104 126.206 370.53 126.503C369.956 126.799 369.303 126.979 368.57 127.044ZM368.406 125.179C369.203 125.109 369.812 124.788 370.233 124.216C370.665 123.643 370.839 122.878 370.756 121.922L370.605 120.2C370.521 119.244 370.217 118.521 369.692 118.031C369.178 117.541 368.523 117.331 367.726 117.4C366.929 117.47 366.315 117.792 365.883 118.365C365.462 118.937 365.293 119.701 365.377 120.658L365.527 122.379C365.611 123.335 365.91 124.059 366.424 124.549C366.949 125.039 367.609 125.248 368.406 125.179ZM378.54 120.229L377.19 118.018L377.143 118.022L377.844 126.039L375.852 126.214L374.878 115.088L377.189 114.886L381.036 120.299L382.386 122.51L382.434 122.506L381.732 114.489L383.724 114.314L384.698 125.44L382.387 125.642L378.54 120.229Z" fill="white"/>
</g>
<defs>
<filter id="filter0_dddddd_2656_51052" x="0.890923" y="0.434937" width="482.224" height="250.871" filterUnits="userSpaceOnUse" color-interpolation-filters="sRGB">
<feFlood flood-opacity="0" result="BackgroundImageFix"/>
<feColorMatrix in="SourceAlpha" type="matrix" values="0 0 0 0 0 0 0 0 0 0 0 0 0 0 0 0 0 0 127 0" result="hardAlpha"/>
<feOffset dy="0.470434"/>
<feGaussianBlur stdDeviation="1.1069"/>
<feColorMatrix type="matrix" values="0 0 0 0 0.0862745 0 0 0 0 0.0235294 0 0 0 0 0.67451 0 0 0 0.0112458 0"/>
<feBlend mode="normal" in2="BackgroundImageFix" result="effect1_dropShadow_2656_51052"/>
<feColorMatrix in="SourceAlpha" type="matrix" values="0 0 0 0 0 0 0 0 0 0 0 0 0 0 0 0 0 0 127 0" result="hardAlpha"/>
<feOffset dy="1.13052"/>
<feGaussianBlur stdDeviation="2.66004"/>
<feColorMatrix type="matrix" values="0 0 0 0 0.0862745 0 0 0 0 0.0235294 0 0 0 0 0.67451 0 0 0 0.0161557 0"/>
<feBlend mode="normal" in2="effect1_dropShadow_2656_51052" result="effect2_dropShadow_2656_51052"/>
<feColorMatrix in="SourceAlpha" type="matrix" values="0 0 0 0 0 0 0 0 0 0 0 0 0 0 0 0 0 0 127 0" result="hardAlpha"/>
<feOffset dy="2.12866"/>
<feGaussianBlur stdDeviation="5.00862"/>
<feColorMatrix type="matrix" values="0 0 0 0 0.0862745 0 0 0 0 0.0235294 0 0 0 0 0.67451 0 0 0 0.02 0"/>
<feBlend mode="normal" in2="effect2_dropShadow_2656_51052" result="effect3_dropShadow_2656_51052"/>
<feColorMatrix in="SourceAlpha" type="matrix" values="0 0 0 0 0 0 0 0 0 0 0 0 0 0 0 0 0 0 127 0" result="hardAlpha"/>
<feOffset dy="3.79717"/>
<feGaussianBlur stdDeviation="8.93452"/>
<feColorMatrix type="matrix" values="0 0 0 0 0.0862745 0 0 0 0 0.0235294 0 0 0 0 0.67451 0 0 0 0.0238443 0"/>
<feBlend mode="normal" in2="effect3_dropShadow_2656_51052" result="effect4_dropShadow_2656_51052"/>
<feColorMatrix in="SourceAlpha" type="matrix" values="0 0 0 0 0 0 0 0 0 0 0 0 0 0 0 0 0 0 127 0" result="hardAlpha"/>
<feOffset dy="7.10219"/>
<feGaussianBlur stdDeviation="16.711"/>
<feColorMatrix type="matrix" values="0 0 0 0 0.0862745 0 0 0 0 0.0235294 0 0 0 0 0.67451 0 0 0 0.0287542 0"/>
<feBlend mode="normal" in2="effect4_dropShadow_2656_51052" result="effect5_dropShadow_2656_51052"/>
<feColorMatrix in="SourceAlpha" type="matrix" values="0 0 0 0 0 0 0 0 0 0 0 0 0 0 0 0 0 0 127 0" result="hardAlpha"/>
<feOffset dy="17"/>
<feGaussianBlur stdDeviation="40"/>
<feColorMatrix type="matrix" values="0 0 0 0 0.0862745 0 0 0 0 0.0235294 0 0 0 0 0.67451 0 0 0 0.04 0"/>
<feBlend mode="normal" in2="effect5_dropShadow_2656_51052" result="effect6_dropShadow_2656_51052"/>
<feBlend mode="normal" in="SourceGraphic" in2="effect6_dropShadow_2656_51052" result="shape"/>
</filter>
</defs>
</svg>
