<svg width="30" height="30" viewBox="0 0 30 30" fill="none" xmlns="http://www.w3.org/2000/svg">
<path fill-rule="evenodd" clip-rule="evenodd" d="M26.6822 -1.84485H1.45172C-0.361444 -1.84485 -1.84494 1.48354 -1.84494 3.29671V26.6816C-1.84494 28.4947 -0.361444 31.8245 1.45172 31.8245H26.6822C30.3402 31.8245 31.8237 28.4947 31.8237 26.6816V3.29671C31.8237 1.48354 30.3402 -1.84485 26.6822 -1.84485ZM11.37 16.8349C11.0406 16.5447 10.5277 16.6308 10.311 17.0126L6.43444 23.8436C6.04916 24.5226 6.90784 25.2203 7.49353 24.7042L13.3082 19.5805C13.6208 19.3051 13.6208 18.8178 13.3081 18.5424L11.37 16.8349ZM13.3077 11.4366C13.6202 11.1612 13.6202 10.674 13.3076 10.3986L7.49349 5.27546C6.9078 4.75938 6.04913 5.45708 6.43441 6.136L10.3109 12.9669C10.5276 13.3488 11.0407 13.4348 11.3701 13.1445L13.3077 11.4366ZM12.0489 15.5089C11.7363 15.2335 11.7363 14.7462 12.0489 14.4707L22.4859 5.27526C23.0716 4.75921 23.9302 5.45695 23.5449 6.13586L18.7136 14.6484C18.5934 14.8601 18.5934 15.1195 18.7136 15.3313L23.5449 23.8438C23.9302 24.5227 23.0716 25.2205 22.4859 24.7044L12.0489 15.5089Z" fill="#9360FF"/>
<path fill-rule="evenodd" clip-rule="evenodd" d="M26.6822 -1.84485H1.45172C-0.361444 -1.84485 -1.84494 1.48354 -1.84494 3.29671V26.6816C-1.84494 28.4947 -0.361444 31.8245 1.45172 31.8245H26.6822C30.3402 31.8245 31.8237 28.4947 31.8237 26.6816V3.29671C31.8237 1.48354 30.3402 -1.84485 26.6822 -1.84485ZM11.37 16.8349C11.0406 16.5447 10.5277 16.6308 10.311 17.0126L6.43444 23.8436C6.04916 24.5226 6.90784 25.2203 7.49353 24.7042L13.3082 19.5805C13.6208 19.3051 13.6208 18.8178 13.3081 18.5424L11.37 16.8349ZM13.3077 11.4366C13.6202 11.1612 13.6202 10.674 13.3076 10.3986L7.49349 5.27546C6.9078 4.75938 6.04913 5.45708 6.43441 6.136L10.3109 12.9669C10.5276 13.3488 11.0407 13.4348 11.3701 13.1445L13.3077 11.4366ZM12.0489 15.5089C11.7363 15.2335 11.7363 14.7462 12.0489 14.4707L22.4859 5.27526C23.0716 4.75921 23.9302 5.45695 23.5449 6.13586L18.7136 14.6484C18.5934 14.8601 18.5934 15.1195 18.7136 15.3313L23.5449 23.8438C23.9302 24.5227 23.0716 25.2205 22.4859 24.7044L12.0489 15.5089Z" fill="url(#paint0_linear_4157_17510)"/>
<defs>
<linearGradient id="paint0_linear_4157_17510" x1="25.8278" y1="-1.84485" x2="1.61353" y2="31.8245" gradientUnits="userSpaceOnUse">
<stop stop-color="#336CFF"/>
<stop offset="1" stop-color="#7533FF"/>
</linearGradient>
</defs>
</svg>
