<svg width="398" height="235" viewBox="0 0 398 235" fill="none" xmlns="http://www.w3.org/2000/svg">
<g filter="url(#filter0_dddddd_2704_108525)">
<path d="M273 66.8047L292.227 65.1225L293.904 84.2909L274.677 85.973L273 66.8047ZM291.362 66.1508L274.031 67.6671L275.542 84.9447L292.873 83.4284L291.362 66.1508Z" fill="#99FFFF"/>
<path d="M296.494 97.2935L308.08 96.2798L309.09 107.83L297.504 108.843L296.494 97.2935ZM307.214 97.3076L297.525 98.1553L298.37 107.815L308.059 106.967L307.214 97.3076Z" fill="#99FFFF"/>
<path opacity="0.3" d="M317.434 73.8034L307.034 74.7133L306.127 64.3447L316.527 63.4348L317.434 73.8034ZM307.899 73.6851L316.403 72.941L315.661 64.4632L307.157 65.2072L307.899 73.6851Z" fill="#EF4AF0"/>
<path d="M95.3248 122.846L76.0976 124.528L74.4205 105.36L93.6478 103.678L95.3248 122.846ZM76.963 123.5L94.2941 121.984L92.7825 104.706L75.4514 106.222L76.963 123.5Z" fill="#99FFFF"/>
<path d="M71.8307 92.3574L60.2449 93.371L59.2345 81.8213L70.8203 80.8077L71.8307 92.3574ZM61.1104 92.3433L70.8 91.4956L69.9549 81.836L60.2653 82.6837L61.1104 92.3433Z" fill="#99FFFF"/>
<path opacity="0.3" d="M50.8909 115.847L61.291 114.938L62.1981 125.306L51.798 126.216L50.8909 115.847ZM60.4261 115.966L51.9217 116.71L52.6634 125.188L61.1678 124.444L60.4261 115.966Z" fill="#EF4AF0"/>
<rect width="97" height="34" transform="translate(79.9999 79.4536) rotate(-5)" fill="white"/>
<path d="M100.047 89.5768L100.646 96.4307C100.729 97.3764 100.972 98.0725 101.375 98.5191C101.778 98.9657 102.415 99.1508 103.287 99.0746C104.158 98.9984 104.753 98.7054 105.073 98.1956C105.392 97.6858 105.511 96.958 105.428 96.0123L104.828 89.1585L106.597 89.0037L107.172 95.5706C107.244 96.3888 107.231 97.102 107.134 97.7101C107.038 98.3181 106.842 98.8332 106.547 99.2551C106.251 99.6665 105.846 99.9911 105.331 100.229C104.827 100.466 104.193 100.618 103.427 100.684C102.662 100.751 102.006 100.712 101.458 100.568C100.92 100.422 100.47 100.172 100.107 99.8185C99.7436 99.4542 99.4613 98.981 99.2604 98.3989C99.0596 97.8169 98.9234 97.1168 98.8518 96.2985L98.2773 89.7316L100.047 89.5768ZM113.018 93.453L111.585 91.2014L111.537 91.2056L112.282 99.7171L110.56 99.8677L109.587 88.7422L111.595 88.5665L115.768 94.401L117.201 96.6526L117.249 96.6485L116.504 88.137L118.226 87.9864L119.199 99.1119L117.191 99.2876L113.018 93.453ZM122.257 98.8443L121.284 87.7188L123.085 87.5612L123.919 97.0928L128.446 96.6968L128.585 98.2907L122.257 98.8443ZM134.524 97.9639C133.801 98.0271 133.131 97.9625 132.515 97.7702C131.908 97.5663 131.371 97.2439 130.905 96.8029C130.447 96.3503 130.071 95.7783 129.775 95.0868C129.488 94.3838 129.304 93.5647 129.222 92.6296C129.141 91.6945 129.18 90.8612 129.341 90.1298C129.512 89.3867 129.783 88.758 130.156 88.2436C130.538 87.7176 131.011 87.3068 131.574 87.0113C132.147 86.7042 132.794 86.5191 133.517 86.4558C134.239 86.3926 134.904 86.463 135.511 86.6669C136.127 86.8592 136.664 87.1816 137.121 87.6342C137.588 88.0752 137.965 88.6472 138.251 89.3502C138.547 90.0417 138.736 90.855 138.818 91.7901C138.9 92.7252 138.855 93.5643 138.685 94.3073C138.524 95.0388 138.252 95.6675 137.87 96.1935C137.497 96.7079 137.025 97.1187 136.452 97.4258C135.889 97.7213 135.246 97.9007 134.524 97.9639ZM134.383 96.354C134.808 96.3169 135.189 96.2085 135.527 96.0291C135.875 95.8487 136.159 95.6097 136.38 95.312C136.609 95.0028 136.776 94.6403 136.879 94.2244C136.981 93.8085 137.011 93.3456 136.966 92.8355L136.813 91.0822C136.768 90.5722 136.659 90.1213 136.485 89.7296C136.312 89.3379 136.086 89.015 135.806 88.7611C135.537 88.4955 135.215 88.3042 134.841 88.187C134.477 88.069 134.083 88.0285 133.658 88.0657C133.222 88.1038 132.835 88.2126 132.498 88.392C132.16 88.5715 131.876 88.8158 131.646 89.125C131.426 89.4227 131.265 89.7795 131.162 90.1953C131.059 90.6112 131.03 91.0742 131.074 91.5842L131.228 93.3375C131.272 93.8476 131.381 94.2985 131.555 94.6902C131.728 95.0819 131.95 95.4105 132.219 95.676C132.499 95.93 132.82 96.116 133.184 96.2341C133.547 96.3522 133.947 96.3922 134.383 96.354ZM146.062 96.9544C144.606 97.0818 143.421 96.6929 142.507 95.7878C141.592 94.8721 141.052 93.4792 140.889 91.609C140.807 90.6739 140.841 89.841 140.991 89.1105C141.141 88.38 141.397 87.7526 141.758 87.2285C142.119 86.7044 142.576 86.295 143.128 86.0004C143.69 85.6943 144.333 85.5096 145.055 85.4464C146.022 85.3618 146.848 85.5036 147.534 85.872C148.23 86.2394 148.8 86.8212 149.244 87.6175L147.803 88.5788C147.565 88.0642 147.231 87.6705 146.8 87.3977C146.379 87.1133 145.844 86.9995 145.196 87.0562C144.335 87.1315 143.686 87.4828 143.249 88.11C142.811 88.7372 142.637 89.5661 142.727 90.5968L142.875 92.2864C142.965 93.3171 143.28 94.1033 143.82 94.645C144.36 95.1867 145.061 95.4198 145.921 95.3445C146.591 95.286 147.118 95.0685 147.502 94.6923C147.897 94.3044 148.171 93.8307 148.326 93.2711L149.853 94.0208C149.552 94.861 149.086 95.5388 148.457 96.0543C147.827 96.5698 147.029 96.8698 146.062 96.9544ZM155.167 90.7292L153.79 92.6164L154.091 96.0592L152.29 96.2168L151.317 85.0913L153.118 84.9337L153.612 90.5761L153.675 90.5706L155.092 88.4069L157.772 84.5265L159.876 84.3424L156.317 89.3758L161.168 95.44L159.001 95.6297L155.167 90.7292Z" fill="#44414C"/>
<rect width="169" height="34" transform="translate(119 103.729) rotate(-5)" fill="#EF4AF0"/>
<path d="M138.251 125.132L137.277 114.007L142.282 113.569C142.792 113.524 143.257 113.569 143.675 113.704C144.104 113.827 144.475 114.03 144.789 114.313C145.102 114.586 145.351 114.928 145.537 115.34C145.723 115.752 145.838 116.213 145.883 116.723C145.928 117.244 145.895 117.723 145.784 118.161C145.671 118.589 145.485 118.969 145.225 119.302C144.964 119.625 144.634 119.889 144.234 120.096C143.845 120.29 143.395 120.41 142.885 120.455L139.984 120.708L140.355 124.948L138.251 125.132ZM139.825 118.891L142.534 118.654C142.938 118.619 143.248 118.485 143.463 118.252C143.677 118.008 143.767 117.685 143.731 117.281L143.667 116.548C143.632 116.144 143.488 115.846 143.236 115.654C142.983 115.462 142.655 115.383 142.251 115.419L139.542 115.656L139.825 118.891ZM154.623 123.7L153.482 120.941L149.53 121.287L148.901 124.2L146.765 124.387L149.522 112.936L152.136 112.707L156.807 123.509L154.623 123.7ZM150.98 114.735L150.9 114.742L149.882 119.441L152.815 119.184L150.98 114.735ZM162.241 123.226C161.285 123.31 160.457 123.211 159.758 122.929C159.069 122.647 158.462 122.25 157.935 121.74L159.234 120.245C159.655 120.658 160.11 120.961 160.598 121.153C161.097 121.345 161.633 121.416 162.207 121.366C162.855 121.309 163.332 121.128 163.637 120.823C163.941 120.508 164.072 120.111 164.031 119.632C163.998 119.261 163.865 118.967 163.632 118.752C163.399 118.537 162.986 118.402 162.392 118.346L161.326 118.279C159.075 118.123 157.87 117.141 157.712 115.335C157.668 114.835 157.719 114.376 157.864 113.956C158.02 113.536 158.261 113.167 158.587 112.849C158.912 112.532 159.313 112.277 159.789 112.085C160.274 111.882 160.83 111.753 161.457 111.699C162.297 111.625 163.042 111.699 163.693 111.921C164.344 112.142 164.917 112.504 165.41 113.007L164.094 114.487C163.788 114.171 163.429 113.924 163.018 113.746C162.606 113.568 162.103 113.505 161.507 113.557C160.902 113.61 160.455 113.767 160.167 114.028C159.889 114.277 159.769 114.609 159.805 115.023C159.842 115.448 159.992 115.751 160.254 115.932C160.516 116.112 160.922 116.226 161.472 116.275L162.525 116.375C163.669 116.479 164.529 116.767 165.106 117.242C165.693 117.704 166.027 118.398 166.107 119.322C166.154 119.854 166.101 120.345 165.947 120.798C165.804 121.239 165.566 121.634 165.232 121.985C164.908 122.324 164.494 122.601 163.988 122.816C163.493 123.031 162.91 123.168 162.241 123.226ZM172.101 122.363C171.145 122.447 170.317 122.348 169.618 122.067C168.93 121.784 168.322 121.388 167.796 120.877L169.094 119.382C169.516 119.795 169.971 120.098 170.459 120.291C170.957 120.483 171.493 120.554 172.067 120.503C172.715 120.447 173.192 120.266 173.497 119.961C173.802 119.645 173.933 119.248 173.891 118.77C173.859 118.398 173.726 118.104 173.493 117.889C173.26 117.674 172.846 117.539 172.253 117.484L171.187 117.416C168.935 117.26 167.73 116.279 167.572 114.472C167.529 113.973 167.58 113.513 167.725 113.094C167.881 112.673 168.122 112.304 168.447 111.986C168.773 111.669 169.173 111.414 169.649 111.223C170.135 111.02 170.691 110.891 171.318 110.836C172.157 110.762 172.903 110.836 173.554 111.058C174.205 111.279 174.777 111.641 175.271 112.144L173.955 113.625C173.649 113.309 173.29 113.062 172.878 112.884C172.466 112.706 171.963 112.643 171.368 112.695C170.762 112.748 170.316 112.904 170.028 113.165C169.75 113.414 169.629 113.746 169.665 114.161C169.702 114.586 169.852 114.888 170.114 115.069C170.376 115.249 170.782 115.364 171.333 115.412L172.385 115.513C173.529 115.616 174.39 115.905 174.967 116.379C175.553 116.842 175.887 117.535 175.968 118.46C176.014 118.991 175.961 119.483 175.808 119.935C175.664 120.376 175.426 120.772 175.093 121.122C174.769 121.461 174.354 121.738 173.848 121.954C173.353 122.168 172.771 122.305 172.101 122.363ZM178.226 121.635L178.079 119.945L179.545 119.817L178.867 112.071L177.401 112.199L177.253 110.509L182.306 110.067L182.454 111.757L180.971 111.887L181.649 119.633L183.131 119.503L183.279 121.193L178.226 121.635ZM188.33 120.751L183.722 109.943L185.874 109.755L188.053 115.025L189.365 118.637L189.413 118.632L190.062 114.85L191.293 109.281L193.381 109.098L190.72 120.542L188.33 120.751ZM196.23 120.06L195.257 108.934L202.589 108.293L202.752 110.158L197.524 110.615L197.76 113.309L202.382 112.904L202.545 114.769L197.923 115.174L198.171 118.011L203.399 117.553L203.562 119.418L196.23 120.06ZM209.73 118.879L209.582 117.189L211.048 117.061L210.371 109.314L208.904 109.443L208.757 107.753L213.809 107.311L213.957 109.001L212.475 109.13L213.152 116.877L214.635 116.747L214.783 118.437L209.73 118.879ZM219.939 112.236L218.59 110.025L218.542 110.029L219.243 118.046L217.251 118.221L216.277 107.095L218.589 106.893L222.435 112.306L223.785 114.517L223.833 114.513L223.131 106.496L225.124 106.321L226.097 117.447L223.786 117.649L219.939 112.236ZM233.362 117.004C232.629 117.068 231.955 117.009 231.339 116.828C230.733 116.634 230.197 116.317 229.73 115.876C229.274 115.434 228.903 114.872 228.619 114.191C228.333 113.498 228.15 112.684 228.068 111.749C227.986 110.814 228.025 109.976 228.185 109.233C228.344 108.481 228.609 107.842 228.981 107.317C229.362 106.78 229.834 106.359 230.396 106.053C230.969 105.746 231.622 105.56 232.355 105.496C233.354 105.408 234.202 105.548 234.898 105.916C235.594 106.283 236.176 106.88 236.644 107.706L234.927 108.82C234.724 108.335 234.428 107.959 234.041 107.693C233.653 107.417 233.145 107.306 232.518 107.361C231.732 107.429 231.128 107.75 230.707 108.322C230.297 108.893 230.133 109.657 230.217 110.614L230.371 112.367C230.455 113.334 230.749 114.058 231.251 114.538C231.763 115.008 232.413 115.208 233.199 115.139C233.826 115.084 234.321 114.869 234.684 114.495C235.058 114.12 235.314 113.674 235.451 113.159L237.244 114.014C236.913 114.878 236.433 115.573 235.805 116.1C235.175 116.615 234.361 116.916 233.362 117.004ZM243.753 116.095C243.02 116.159 242.345 116.095 241.728 115.902C241.112 115.71 240.57 115.388 240.102 114.937C239.645 114.484 239.268 113.912 238.972 113.221C238.676 112.529 238.487 111.71 238.404 110.765C238.322 109.83 238.367 108.996 238.538 108.263C238.709 107.52 238.98 106.886 239.352 106.361C239.734 105.835 240.212 105.424 240.786 105.128C241.359 104.831 242.013 104.651 242.746 104.587C243.479 104.523 244.154 104.587 244.771 104.779C245.387 104.971 245.929 105.293 246.397 105.745C246.865 106.197 247.242 106.774 247.528 107.477C247.824 108.168 248.013 108.982 248.095 109.917C248.178 110.863 248.133 111.702 247.962 112.434C247.801 113.165 247.529 113.794 247.147 114.32C246.765 114.846 246.287 115.257 245.713 115.554C245.14 115.85 244.486 116.031 243.753 116.095ZM243.59 114.23C244.387 114.16 244.996 113.839 245.417 113.267C245.848 112.694 246.022 111.929 245.939 110.973L245.788 109.251C245.704 108.295 245.4 107.572 244.876 107.083C244.362 106.592 243.706 106.382 242.909 106.452C242.112 106.521 241.498 106.843 241.066 107.416C240.645 107.988 240.476 108.752 240.56 109.709L240.711 111.43C240.794 112.387 241.093 113.11 241.607 113.6C242.132 114.09 242.793 114.3 243.59 114.23ZM258.736 106.545L258.672 106.55L257.966 108.395L256.055 112.802L253.408 108.793L252.392 107.1L252.329 107.105L253.027 115.091L251.035 115.265L250.062 104.139L252.436 103.932L255.765 109.117L255.829 109.112L258.175 103.43L260.454 103.23L261.427 114.356L259.435 114.53L258.736 106.545ZM264.366 114.099L263.393 102.973L270.725 102.332L270.888 104.196L265.66 104.654L265.896 107.348L270.518 106.943L270.681 108.808L266.059 109.212L266.307 112.05L271.535 111.592L271.698 113.457L264.366 114.099Z" fill="white"/>
</g>
<defs>
<filter id="filter0_dddddd_2704_108525" x="-29.1091" y="0.434814" width="426.543" height="234.165" filterUnits="userSpaceOnUse" color-interpolation-filters="sRGB">
<feFlood flood-opacity="0" result="BackgroundImageFix"/>
<feColorMatrix in="SourceAlpha" type="matrix" values="0 0 0 0 0 0 0 0 0 0 0 0 0 0 0 0 0 0 127 0" result="hardAlpha"/>
<feOffset dy="0.470434"/>
<feGaussianBlur stdDeviation="1.1069"/>
<feColorMatrix type="matrix" values="0 0 0 0 0.0862745 0 0 0 0 0.0235294 0 0 0 0 0.67451 0 0 0 0.0112458 0"/>
<feBlend mode="normal" in2="BackgroundImageFix" result="effect1_dropShadow_2704_108525"/>
<feColorMatrix in="SourceAlpha" type="matrix" values="0 0 0 0 0 0 0 0 0 0 0 0 0 0 0 0 0 0 127 0" result="hardAlpha"/>
<feOffset dy="1.13052"/>
<feGaussianBlur stdDeviation="2.66004"/>
<feColorMatrix type="matrix" values="0 0 0 0 0.0862745 0 0 0 0 0.0235294 0 0 0 0 0.67451 0 0 0 0.0161557 0"/>
<feBlend mode="normal" in2="effect1_dropShadow_2704_108525" result="effect2_dropShadow_2704_108525"/>
<feColorMatrix in="SourceAlpha" type="matrix" values="0 0 0 0 0 0 0 0 0 0 0 0 0 0 0 0 0 0 127 0" result="hardAlpha"/>
<feOffset dy="2.12866"/>
<feGaussianBlur stdDeviation="5.00862"/>
<feColorMatrix type="matrix" values="0 0 0 0 0.0862745 0 0 0 0 0.0235294 0 0 0 0 0.67451 0 0 0 0.02 0"/>
<feBlend mode="normal" in2="effect2_dropShadow_2704_108525" result="effect3_dropShadow_2704_108525"/>
<feColorMatrix in="SourceAlpha" type="matrix" values="0 0 0 0 0 0 0 0 0 0 0 0 0 0 0 0 0 0 127 0" result="hardAlpha"/>
<feOffset dy="3.79717"/>
<feGaussianBlur stdDeviation="8.93452"/>
<feColorMatrix type="matrix" values="0 0 0 0 0.0862745 0 0 0 0 0.0235294 0 0 0 0 0.67451 0 0 0 0.0238443 0"/>
<feBlend mode="normal" in2="effect3_dropShadow_2704_108525" result="effect4_dropShadow_2704_108525"/>
<feColorMatrix in="SourceAlpha" type="matrix" values="0 0 0 0 0 0 0 0 0 0 0 0 0 0 0 0 0 0 127 0" result="hardAlpha"/>
<feOffset dy="7.10219"/>
<feGaussianBlur stdDeviation="16.711"/>
<feColorMatrix type="matrix" values="0 0 0 0 0.0862745 0 0 0 0 0.0235294 0 0 0 0 0.67451 0 0 0 0.0287542 0"/>
<feBlend mode="normal" in2="effect4_dropShadow_2704_108525" result="effect5_dropShadow_2704_108525"/>
<feColorMatrix in="SourceAlpha" type="matrix" values="0 0 0 0 0 0 0 0 0 0 0 0 0 0 0 0 0 0 127 0" result="hardAlpha"/>
<feOffset dy="17"/>
<feGaussianBlur stdDeviation="40"/>
<feColorMatrix type="matrix" values="0 0 0 0 0.0862745 0 0 0 0 0.0235294 0 0 0 0 0.67451 0 0 0 0.04 0"/>
<feBlend mode="normal" in2="effect5_dropShadow_2704_108525" result="effect6_dropShadow_2704_108525"/>
<feBlend mode="normal" in="SourceGraphic" in2="effect6_dropShadow_2704_108525" result="shape"/>
</filter>
</defs>
</svg>
