<svg width="144" height="39" viewBox="0 0 144 39" fill="none" xmlns="http://www.w3.org/2000/svg">
<g clip-path="url(#clip0_3331_88133)">
<rect x="2.35101" y="1.76318" width="33.502" height="34.6776" fill="#99FFFF"/>
<rect x="2.35101" y="1.76318" width="33.502" height="34.6776" fill="url(#paint0_linear_3331_88133)"/>
<path fill-rule="evenodd" clip-rule="evenodd" d="M34.0021 -2.35107H1.85004C-0.460537 -2.35107 -2.35101 1.89042 -2.35101 4.20099V34.0012C-2.35101 36.3117 -0.460537 40.555 1.85004 40.555H34.0021C38.6637 40.555 40.5542 36.3117 40.5542 34.0012V4.20099C40.5542 1.89042 38.6637 -2.35107 34.0021 -2.35107ZM14.4893 21.4532C14.0695 21.0834 13.4159 21.1931 13.1398 21.6796L8.19971 30.3847C7.70873 31.2499 8.80297 32.139 9.54934 31.4813L16.9591 24.9521C17.3575 24.601 17.3575 23.9801 16.9591 23.6291L14.4893 21.4532ZM16.9585 14.574C17.3568 14.223 17.3567 13.6021 16.9584 13.2511L9.5493 6.7226C8.80292 6.06493 7.70869 6.95403 8.19967 7.81921L13.1396 16.5241C13.4158 17.0108 14.0696 17.1204 14.4894 16.7504L16.9585 14.574ZM15.3545 19.7635C14.9561 19.4125 14.9561 18.7915 15.3545 18.4405L28.6547 6.72234C29.4011 6.06471 30.4952 6.95387 30.0042 7.81903L23.8474 18.6668C23.6943 18.9367 23.6943 19.2673 23.8474 19.5372L30.0042 30.3849C30.4952 31.2501 29.4011 32.1393 28.6546 31.4816L15.3545 19.7635Z" fill="#7533FF"/>
<path fill-rule="evenodd" clip-rule="evenodd" d="M34.0021 -2.35107H1.85004C-0.460537 -2.35107 -2.35101 1.89042 -2.35101 4.20099V34.0012C-2.35101 36.3117 -0.460537 40.555 1.85004 40.555H34.0021C38.6637 40.555 40.5542 36.3117 40.5542 34.0012V4.20099C40.5542 1.89042 38.6637 -2.35107 34.0021 -2.35107ZM14.4893 21.4532C14.0695 21.0834 13.4159 21.1931 13.1398 21.6796L8.19971 30.3847C7.70873 31.2499 8.80297 32.139 9.54934 31.4813L16.9591 24.9521C17.3575 24.601 17.3575 23.9801 16.9591 23.6291L14.4893 21.4532ZM16.9585 14.574C17.3568 14.223 17.3567 13.6021 16.9584 13.2511L9.5493 6.7226C8.80292 6.06493 7.70869 6.95403 8.19967 7.81921L13.1396 16.5241C13.4158 17.0108 14.0696 17.1204 14.4894 16.7504L16.9585 14.574ZM15.3545 19.7635C14.9561 19.4125 14.9561 18.7915 15.3545 18.4405L28.6547 6.72234C29.4011 6.06471 30.4952 6.95387 30.0042 7.81903L23.8474 18.6668C23.6943 18.9367 23.6943 19.2673 23.8474 19.5372L30.0042 30.3849C30.4952 31.2501 29.4011 32.1393 28.6546 31.4816L15.3545 19.7635Z" fill="url(#paint1_linear_3331_88133)"/>
</g>
<path d="M65.2285 27.8774H62.8117L58.4328 20.8665H58.385L54.0061 27.8774H51.709L57.1646 19.3829L51.8526 11.1755H54.2693L58.4568 17.8276H58.5046L62.7878 11.1755H65.0849L59.725 19.3111L65.2285 27.8774ZM71.13 28.1646C70.2685 28.1646 69.4949 28.013 68.8089 27.7099C68.123 27.4069 67.5407 26.9761 67.0621 26.4178C66.5995 25.8595 66.2406 25.1815 65.9854 24.3839C65.7461 23.5863 65.6265 22.693 65.6265 21.7039C65.6265 20.7149 65.7461 19.8216 65.9854 19.024C66.2406 18.2264 66.5995 17.5484 67.0621 16.9901C67.5407 16.4318 68.123 16.001 68.8089 15.698C69.4949 15.3949 70.2685 15.2433 71.13 15.2433C72.3583 15.2433 73.3393 15.5145 74.0731 16.0569C74.8229 16.5833 75.3812 17.2772 75.7481 18.1386L74.1449 18.9522C73.9216 18.3141 73.5547 17.8196 73.0442 17.4686C72.5337 17.1177 71.8957 16.9422 71.13 16.9422C70.5557 16.9422 70.0532 17.0379 69.6225 17.2294C69.1918 17.4048 68.8328 17.6601 68.5457 17.9951C68.2586 18.3141 68.0432 18.7049 67.8996 19.1676C67.7561 19.6142 67.6843 20.1087 67.6843 20.6511V22.7568C67.6843 23.8415 67.9714 24.7349 68.5457 25.4368C69.1359 26.1227 69.9973 26.4657 71.13 26.4657C72.6773 26.4657 73.794 25.7478 74.4799 24.3121L75.8678 25.2453C75.4689 26.1387 74.8707 26.8485 74.0731 27.3749C73.2915 27.9014 72.3104 28.1646 71.13 28.1646ZM82.1147 28.1646C81.2692 28.1646 80.5035 28.013 79.8176 27.7099C79.1476 27.4069 78.5654 26.9761 78.0708 26.4178C77.5923 25.8435 77.2174 25.1656 76.9462 24.3839C76.691 23.5863 76.5634 22.693 76.5634 21.7039C76.5634 20.7309 76.691 19.8455 76.9462 19.0479C77.2174 18.2503 77.5923 17.5723 78.0708 17.014C78.5654 16.4397 79.1476 16.001 79.8176 15.698C80.5035 15.3949 81.2692 15.2433 82.1147 15.2433C82.9442 15.2433 83.686 15.3949 84.34 15.698C84.9941 16.001 85.5524 16.4238 86.015 16.9661C86.4776 17.4926 86.8286 18.1227 87.0679 18.8565C87.3231 19.5903 87.4507 20.3959 87.4507 21.2732V22.1825H78.5733V22.7568C78.5733 23.2832 78.6531 23.7777 78.8126 24.2403C78.9881 24.687 79.2274 25.0778 79.5305 25.4128C79.8495 25.7478 80.2324 26.011 80.679 26.2025C81.1416 26.3939 81.6601 26.4896 82.2344 26.4896C83.016 26.4896 83.694 26.3062 84.2683 25.9393C84.8585 25.5724 85.3131 25.0459 85.6322 24.36L86.9961 25.341C86.5973 26.1865 85.9751 26.8725 85.1297 27.3989C84.2842 27.9093 83.2792 28.1646 82.1147 28.1646ZM82.1147 16.8465C81.5883 16.8465 81.1097 16.9422 80.679 17.1336C80.2483 17.3091 79.8734 17.5644 79.5544 17.8994C79.2513 18.2343 79.012 18.6332 78.8365 19.0958C78.6611 19.5424 78.5733 20.0369 78.5733 20.5793V20.7468H85.3929V20.4836C85.3929 19.3829 85.0898 18.5055 84.4836 17.8515C83.8934 17.1815 83.1037 16.8465 82.1147 16.8465ZM91.6819 27.8774C91.0119 27.8774 90.5014 27.694 90.1505 27.3271C89.8155 26.9442 89.648 26.4657 89.648 25.8914V10.1705H91.5623V26.2025H93.3808V27.8774H91.6819ZM100.1 27.8774V11.1755H106.752C108.251 11.1755 109.4 11.6062 110.197 12.4676C111.011 13.3131 111.418 14.4776 111.418 15.9612C111.418 17.4447 111.011 18.6172 110.197 19.4786C109.4 20.3241 108.251 20.7468 106.752 20.7468H102.11V27.8774H100.1ZM102.11 18.9761H106.752C107.549 18.9761 108.163 18.7687 108.594 18.354C109.041 17.9392 109.264 17.349 109.264 16.5833V15.339C109.264 14.5733 109.041 13.9831 108.594 13.5683C108.163 13.1536 107.549 12.9462 106.752 12.9462H102.11V18.9761ZM122.202 27.8774C121.484 27.8774 120.965 27.686 120.646 27.3032C120.343 26.9203 120.152 26.4417 120.072 25.8675H119.952C119.681 26.6332 119.235 27.2074 118.612 27.5903C117.99 27.9732 117.249 28.1646 116.387 28.1646C115.079 28.1646 114.058 27.8296 113.324 27.1596C112.606 26.4896 112.248 25.5803 112.248 24.4318C112.248 23.2673 112.67 22.3739 113.516 21.7518C114.377 21.1297 115.709 20.8186 117.512 20.8186H119.952V19.5983C119.952 18.7209 119.713 18.0509 119.235 17.5883C118.756 17.1257 118.022 16.8944 117.033 16.8944C116.283 16.8944 115.653 17.0619 115.143 17.3969C114.648 17.7319 114.234 18.1785 113.899 18.7368L112.75 17.6601C113.085 16.9901 113.619 16.4238 114.353 15.9612C115.087 15.4826 116.012 15.2433 117.129 15.2433C118.628 15.2433 119.793 15.6102 120.622 16.344C121.452 17.0778 121.867 18.0988 121.867 19.4068V26.2025H123.278V27.8774H122.202ZM116.698 26.5375C117.177 26.5375 117.615 26.4816 118.014 26.37C118.413 26.2583 118.756 26.0988 119.043 25.8914C119.33 25.684 119.554 25.4447 119.713 25.1735C119.873 24.9024 119.952 24.6072 119.952 24.2882V22.2543H117.416C116.315 22.2543 115.51 22.4138 114.999 22.7329C114.505 23.0519 114.257 23.5145 114.257 24.1207V24.6232C114.257 25.2294 114.473 25.7 114.904 26.035C115.35 26.37 115.948 26.5375 116.698 26.5375ZM132.95 25.8675H132.854C132.104 27.3989 130.9 28.1646 129.241 28.1646C128.475 28.1646 127.781 28.013 127.159 27.7099C126.537 27.4069 126.003 26.9761 125.556 26.4178C125.125 25.8595 124.79 25.1815 124.551 24.3839C124.328 23.5863 124.216 22.693 124.216 21.7039C124.216 20.7149 124.328 19.8216 124.551 19.024C124.79 18.2264 125.125 17.5484 125.556 16.9901C126.003 16.4318 126.537 16.001 127.159 15.698C127.781 15.3949 128.475 15.2433 129.241 15.2433C130.102 15.2433 130.836 15.4347 131.442 15.8176C132.064 16.1845 132.535 16.7588 132.854 17.5404H132.95V10.1705H134.864V27.8774H132.95V25.8675ZM129.767 26.4417C130.198 26.4417 130.605 26.3859 130.988 26.2742C131.386 26.1626 131.729 26.0031 132.017 25.7957C132.304 25.5724 132.527 25.3091 132.687 25.006C132.862 24.687 132.95 24.3281 132.95 23.9293V19.335C132.95 19.0001 132.862 18.689 132.687 18.4018C132.527 18.0988 132.304 17.8435 132.017 17.6361C131.729 17.4288 131.386 17.2692 130.988 17.1576C130.605 17.03 130.198 16.9661 129.767 16.9661C128.683 16.9661 127.829 17.3091 127.207 17.9951C126.585 18.6651 126.274 19.5504 126.274 20.6511V22.7568C126.274 23.8575 126.585 24.7508 127.207 25.4368C127.829 26.1067 128.683 26.4417 129.767 26.4417Z" fill="#44414C"/>
<defs>
<linearGradient id="paint0_linear_3331_88133" x1="19.102" y1="1.76318" x2="19.102" y2="36.4407" gradientUnits="userSpaceOnUse">
<stop stop-color="white"/>
<stop offset="1" stop-color="#99FFFF"/>
</linearGradient>
<linearGradient id="paint1_linear_3331_88133" x1="32.9134" y1="-2.35107" x2="2.05624" y2="40.555" gradientUnits="userSpaceOnUse">
<stop stop-color="#336CFF"/>
<stop offset="1" stop-color="#7533FF"/>
</linearGradient>
<clipPath id="clip0_3331_88133">
<rect width="38.2041" height="38.205" rx="7.34694" fill="white"/>
</clipPath>
</defs>
</svg>
