<svg width="139" height="44" viewBox="0 0 139 44" fill="none" xmlns="http://www.w3.org/2000/svg">
<g clip-path="url(#clip0_2858_55904)">
<g clip-path="url(#clip1_2858_55904)">
<g clip-path="url(#clip2_2858_55904)">
<path d="M59.2415 12.4411H60.1988C60.8574 12.4411 61.3361 12.9903 61.3361 13.6918V14.1197C62.3818 12.746 64.0572 11.9526 66.3895 11.9526C70.7859 11.9526 73.568 14.7295 73.568 19.1555V30.7548H72.5818C71.9537 30.7548 71.4751 30.2057 71.4751 29.5041V19.1555C71.4751 15.9507 69.5009 13.9361 66.3912 13.9361C63.2814 13.9361 61.3344 15.9507 61.3344 19.1555V29.5024C61.3344 30.204 60.8557 30.7531 60.2277 30.7531H59.2415V12.4411Z" fill="#44414C"/>
<path d="M95.8523 13.5998L99.86 19.1847L103.749 13.5998C104.258 12.8983 104.586 12.4392 105.514 12.4392H106.95L101.058 20.8633L108.147 30.7529H106.592C105.665 30.7529 105.277 30.2038 104.827 29.5923L99.6223 22.3288L94.5384 29.5923C94.1192 30.202 93.7016 30.7529 92.7731 30.7529H91.337L98.3951 20.6191L92.532 12.4409H94.0869C95.0137 12.4409 95.343 12.8983 95.8523 13.6016V13.5998Z" fill="#44414C"/>
<path d="M122.874 30.7546H121.917C121.258 30.7546 120.78 30.2055 120.78 29.5039V29.076C119.732 30.4497 118.058 31.2431 115.724 31.2431C111.328 31.2431 108.546 28.4663 108.546 24.0403V12.4409H109.532C110.16 12.4409 110.639 12.9901 110.639 13.6916V24.0386C110.639 27.2433 112.613 29.2579 115.723 29.2579C118.833 29.2579 120.778 27.2433 120.778 24.0386V13.6916C120.778 12.9901 121.256 12.4409 121.885 12.4409H122.871V30.7546H122.874Z" fill="#44414C"/>
<path d="M131.434 11.9526C135.831 11.9526 138.194 14.6082 138.672 17.813H137.836C136.698 17.813 136.461 16.8065 135.653 15.7689C134.994 14.9148 133.619 13.9378 131.436 13.9378C129.253 13.9378 127.459 14.6706 127.459 16.8065C127.459 21.5062 138.674 18.9736 138.674 26.024C138.674 29.2599 135.953 31.2433 131.945 31.2433C127.549 31.2433 124.916 28.5878 124.439 25.383H125.276C126.413 25.383 126.653 26.3895 127.459 27.4271C128.118 28.2811 129.762 29.2582 131.945 29.2582C134.666 29.2582 136.581 28.0369 136.581 26.0222C136.581 20.9259 125.366 23.3978 125.366 16.8048C125.366 13.9361 127.608 11.9526 131.438 11.9526L131.434 11.9526Z" fill="#44414C"/>
<path d="M90.1539 21.7539C90.1539 21.7539 90.3933 19.1503 89.8806 16.8983C89.8382 16.7095 89.7856 16.5415 89.7279 16.3873C88.7926 13.6052 86.3652 11.9526 82.9754 11.9526C79.5855 11.9526 77.075 13.6745 76.1923 16.564C76.155 16.6593 76.1227 16.7701 76.0973 16.8983C75.7272 18.8038 75.8274 21.7539 75.8274 21.7539V24.0388C75.8274 28.4648 78.5789 31.2416 82.9754 31.2416C87.3718 31.2416 89.5853 28.586 90.064 25.3813H89.2271C88.0898 25.3813 87.8505 26.3878 87.0442 27.4254C86.3856 28.2794 85.16 29.2564 82.9771 29.2564C79.8673 29.2564 77.922 27.2418 77.922 24.037C77.922 23.895 77.978 22.795 78.0103 21.7522H90.1539V21.7539ZM82.9754 13.9361C84.6864 13.9361 86.2294 14.5615 87.1138 15.6545C87.6111 16.2695 87.8776 17.0456 87.9252 17.8424C87.9523 18.3032 87.9676 18.9199 87.9336 19.67H87.8929C87.9048 19.7029 87.9184 19.7358 87.9286 19.7687H78.1376C78.1376 19.2213 78.1376 18.5786 78.141 18.0399C78.1461 16.6315 79.0305 15.3063 80.2306 14.6134C80.991 14.1734 81.9178 13.9361 82.9737 13.9361H82.9754Z" fill="#44414C"/>
</g>
</g>
</g>
<rect width="43.1155" height="44" rx="8" fill="url(#paint0_linear_2858_55904)"/>
<path d="M31.2333 9.18115H29.4051V30.4328L21.534 10.6605C21.1758 9.76147 20.3305 9.18115 19.3799 9.18115H17.6095L13.4473 19.5419H15.7745C16.6657 19.5419 17.5229 18.8767 17.9676 17.8356L19.2611 14.7868L20.709 18.4004C21.0876 19.3445 20.5172 20.3977 19.5361 20.5917C14.9054 21.5098 11.4477 24.7526 9.23418 30.27L7.29907 35.0719H9.66194C10.5565 35.0719 11.4477 34.3911 11.8822 33.3708L12.9296 30.8382C14.2349 27.6871 16.939 23.9315 22.4031 23.9315H22.9055L26.6688 33.3569C27.0524 34.3512 27.986 35.0719 28.8942 35.0719H31.2638C32.2891 35.0719 33.092 34.1988 33.092 33.0832V11.1698C33.092 10.0542 32.2755 9.18115 31.2333 9.18115Z" fill="#7533FF"/>
<defs>
<linearGradient id="paint0_linear_2858_55904" x1="43.9642" y1="-1.03937" x2="-1.74444" y2="43.0719" gradientUnits="userSpaceOnUse">
<stop stop-color="#99FFFF"/>
<stop offset="0.4875" stop-color="#99FFFF" stop-opacity="0"/>
<stop offset="1" stop-color="#99FFFF"/>
</linearGradient>
<clipPath id="clip0_2858_55904">
<rect width="118.8" height="25.8907" fill="white" transform="translate(20.1998 8.83447)"/>
</clipPath>
<clipPath id="clip1_2858_55904">
<rect width="118.8" height="25.8907" fill="white" transform="translate(55.507 9.00781)"/>
</clipPath>
<clipPath id="clip2_2858_55904">
<rect width="79.431" height="19.289" fill="white" transform="translate(59.2415 11.9526)"/>
</clipPath>
</defs>
</svg>
