<svg width="81" height="98" viewBox="0 0 81 98" fill="none" xmlns="http://www.w3.org/2000/svg">
<g filter="url(#filter0_ddd_3331_80520)">
<path d="M55.0816 4.8125H26.0434C24.164 4.8125 22.4257 5.82104 21.4816 7.44889L6.95809 32.6717C6.01397 34.3084 6.01397 36.3166 6.95809 37.9533L21.4816 63.1761C22.4257 64.8128 24.164 65.8125 26.0434 65.8125H55.0816C56.961 65.8125 58.6993 64.804 59.6434 63.1761L74.1669 37.9533C75.111 36.3166 75.111 34.3084 74.1669 32.6717L59.6434 7.44889C58.6993 5.81219 56.961 4.8125 55.0816 4.8125Z" fill="white"/>
<path d="M55.0816 4.8125H26.0434C24.164 4.8125 22.4257 5.82104 21.4816 7.44889L6.95809 32.6717C6.01397 34.3084 6.01397 36.3166 6.95809 37.9533L21.4816 63.1761C22.4257 64.8128 24.164 65.8125 26.0434 65.8125H55.0816C56.961 65.8125 58.6993 64.804 59.6434 63.1761L74.1669 37.9533C75.111 36.3166 75.111 34.3084 74.1669 32.6717L59.6434 7.44889C58.6993 5.81219 56.961 4.8125 55.0816 4.8125Z" fill="url(#paint0_linear_3331_80520)"/>
</g>
<path d="M51.9985 24.8207C49.8952 23.8556 47.6397 23.1446 45.2814 22.7373C45.2385 22.7294 45.1955 22.7491 45.1734 22.7884C44.8833 23.3043 44.562 23.9773 44.337 24.5064C41.8006 24.1266 39.2771 24.1266 36.7927 24.5064C36.5676 23.9656 36.2346 23.3043 35.9432 22.7884C35.9211 22.7504 35.8782 22.7307 35.8353 22.7373C33.4783 23.1432 31.2229 23.8543 29.1182 24.8207C29.1 24.8286 29.0844 24.8416 29.074 24.8587C24.7958 31.2502 23.6238 37.4846 24.1987 43.6418C24.2013 43.6719 24.2182 43.7007 24.2416 43.719C27.0643 45.7919 29.7985 47.0503 32.4819 47.8844C32.5248 47.8975 32.5703 47.8818 32.5976 47.8464C33.2324 46.9796 33.7982 46.0656 34.2834 45.1044C34.312 45.0481 34.2847 44.9814 34.2261 44.9591C33.3286 44.6186 32.474 44.2035 31.6519 43.7321C31.5869 43.6942 31.5817 43.6012 31.6415 43.5566C31.8145 43.427 31.9876 43.2921 32.1528 43.1559C32.1827 43.131 32.2243 43.1258 32.2595 43.1415C37.6601 45.6073 43.507 45.6073 48.844 43.1415C48.8791 43.1245 48.9208 43.1297 48.9519 43.1546C49.1172 43.2907 49.2902 43.4269 49.4645 43.5566C49.5243 43.6011 49.5204 43.6941 49.4554 43.7321C48.6333 44.2126 47.7787 44.6186 46.8799 44.9577C46.8214 44.9799 46.7953 45.0481 46.824 45.1043C47.3196 46.0642 47.8854 46.9782 48.5084 47.8451C48.5345 47.8818 48.5813 47.8975 48.6242 47.8843C51.3206 47.0503 54.0549 45.7918 56.8775 43.7189C56.9022 43.7006 56.9178 43.6731 56.9204 43.643C57.6085 36.5247 55.7679 30.3413 52.0413 24.8599C52.0322 24.8416 52.0166 24.8286 51.9985 24.8207ZM35.09 39.8927C33.464 39.8927 32.1242 38.4 32.1242 36.5666C32.1242 34.7333 33.438 33.2406 35.09 33.2406C36.7549 33.2406 38.0817 34.7465 38.0557 36.5666C38.0557 38.4 36.7419 39.8927 35.09 39.8927ZM46.0553 39.8927C44.4294 39.8927 43.0896 38.4 43.0896 36.5666C43.0896 34.7333 44.4033 33.2406 46.0553 33.2406C47.7202 33.2406 49.047 34.7465 49.021 36.5666C49.021 38.4 47.7203 39.8927 46.0553 39.8927Z" fill="white"/>
<path d="M17.4013 92.625V82.94H20.5863C21.5483 82.94 22.3847 83.1393 23.0953 83.538C23.806 83.928 24.3563 84.487 24.7463 85.215C25.1363 85.9343 25.3313 86.788 25.3313 87.776C25.3313 88.7553 25.1363 89.609 24.7463 90.337C24.3563 91.065 23.806 91.6283 23.0953 92.027C22.3847 92.4257 21.5483 92.625 20.5863 92.625H17.4013ZM18.4413 91.65H20.5863C21.3317 91.65 21.9773 91.494 22.5233 91.182C23.0693 90.8613 23.4897 90.4107 23.7843 89.83C24.0877 89.2493 24.2393 88.5647 24.2393 87.776C24.2393 86.9873 24.0877 86.307 23.7843 85.735C23.481 85.1543 23.0563 84.708 22.5103 84.396C21.9643 84.0753 21.323 83.915 20.5863 83.915H18.4413V91.65ZM26.9068 92.625V85.657H27.8818V92.625H26.9068ZM26.9068 84.37V82.94H27.8818V84.37H26.9068ZM32.2955 92.781C31.6281 92.781 31.0431 92.612 30.5405 92.274C30.0378 91.936 29.6738 91.4767 29.4485 90.896L30.2675 90.506C30.4668 90.9307 30.7441 91.2687 31.0995 91.52C31.4635 91.7713 31.8621 91.897 32.2955 91.897C32.7115 91.897 33.0625 91.7973 33.3485 91.598C33.6345 91.39 33.7775 91.1213 33.7775 90.792C33.7775 90.5493 33.7081 90.3587 33.5695 90.22C33.4308 90.0727 33.2705 89.96 33.0885 89.882C32.9065 89.804 32.7461 89.7477 32.6075 89.713L31.6065 89.427C30.9651 89.245 30.5015 88.9893 30.2155 88.66C29.9295 88.3307 29.7865 87.9493 29.7865 87.516C29.7865 87.1087 29.8905 86.7533 30.0985 86.45C30.3065 86.1467 30.5881 85.9127 30.9435 85.748C31.2988 85.5833 31.6931 85.501 32.1265 85.501C32.7158 85.501 33.2488 85.657 33.7255 85.969C34.2108 86.2723 34.5531 86.697 34.7525 87.243L33.9205 87.633C33.7471 87.243 33.4958 86.9397 33.1665 86.723C32.8458 86.4977 32.4861 86.385 32.0875 86.385C31.6975 86.385 31.3855 86.4847 31.1515 86.684C30.9175 86.8833 30.8005 87.1347 30.8005 87.438C30.8005 87.672 30.8611 87.8583 30.9825 87.997C31.1038 88.1357 31.2425 88.2397 31.3985 88.309C31.5631 88.3783 31.7061 88.4303 31.8275 88.465L32.9845 88.803C33.5478 88.9677 33.9855 89.2233 34.2975 89.57C34.6181 89.9167 34.7785 90.324 34.7785 90.792C34.7785 91.1733 34.6701 91.5157 34.4535 91.819C34.2455 92.1223 33.9551 92.3607 33.5825 92.534C33.2098 92.6987 32.7808 92.781 32.2955 92.781ZM39.6767 92.781C38.9921 92.781 38.3897 92.6207 37.8697 92.3C37.3497 91.9793 36.9424 91.546 36.6477 91C36.3531 90.4453 36.2057 89.8213 36.2057 89.128C36.2057 88.4347 36.3531 87.815 36.6477 87.269C36.9424 86.723 37.3497 86.294 37.8697 85.982C38.3897 85.6613 38.9921 85.501 39.6767 85.501C40.1101 85.501 40.5174 85.579 40.8987 85.735C41.2801 85.891 41.6181 86.1033 41.9127 86.372C42.2074 86.632 42.4284 86.9353 42.5757 87.282L41.6917 87.737C41.5184 87.3643 41.2541 87.061 40.8987 86.827C40.5434 86.593 40.1361 86.476 39.6767 86.476C39.2174 86.476 38.8014 86.593 38.4287 86.827C38.0647 87.0523 37.7744 87.3687 37.5577 87.776C37.3497 88.1747 37.2457 88.6297 37.2457 89.141C37.2457 89.6437 37.3497 90.0987 37.5577 90.506C37.7744 90.9047 38.0647 91.221 38.4287 91.455C38.8014 91.689 39.2174 91.806 39.6767 91.806C40.1361 91.806 40.5391 91.689 40.8857 91.455C41.2411 91.221 41.5097 90.909 41.6917 90.519L42.5757 91C42.4284 91.338 42.2074 91.6413 41.9127 91.91C41.6181 92.1787 41.2801 92.391 40.8987 92.547C40.5174 92.703 40.1101 92.781 39.6767 92.781ZM47.5496 92.781C46.891 92.781 46.293 92.625 45.7556 92.313C45.2183 91.9923 44.7893 91.559 44.4686 91.013C44.1566 90.4583 44.0006 89.83 44.0006 89.128C44.0006 88.4347 44.1566 87.815 44.4686 87.269C44.7806 86.723 45.201 86.294 45.7296 85.982C46.267 85.6613 46.8736 85.501 47.5496 85.501C48.2256 85.501 48.828 85.657 49.3566 85.969C49.894 86.281 50.3143 86.71 50.6176 87.256C50.9296 87.802 51.0856 88.426 51.0856 89.128C51.0856 89.8387 50.9253 90.4713 50.6046 91.026C50.284 91.572 49.855 92.001 49.3176 92.313C48.789 92.625 48.1996 92.781 47.5496 92.781ZM47.5496 91.806C48.0176 91.806 48.438 91.689 48.8106 91.455C49.192 91.221 49.491 90.9003 49.7076 90.493C49.933 90.0857 50.0456 89.6307 50.0456 89.128C50.0456 88.6253 49.933 88.1747 49.7076 87.776C49.491 87.3773 49.192 87.061 48.8106 86.827C48.438 86.593 48.0176 86.476 47.5496 86.476C47.0816 86.476 46.657 86.593 46.2756 86.827C45.903 87.061 45.604 87.3773 45.3786 87.776C45.1533 88.1747 45.0406 88.6253 45.0406 89.128C45.0406 89.6307 45.1533 90.0857 45.3786 90.493C45.604 90.9003 45.903 91.221 46.2756 91.455C46.657 91.689 47.0816 91.806 47.5496 91.806ZM52.8052 92.625V85.657H53.7802V86.801L53.6502 86.632C53.8149 86.3027 54.0619 86.0427 54.3912 85.852C54.7292 85.6613 55.1365 85.566 55.6132 85.566H56.0552V86.541H55.4442C54.9415 86.541 54.5385 86.697 54.2352 87.009C53.9319 87.321 53.7802 87.763 53.7802 88.335V92.625H52.8052ZM60.3438 92.781C59.6938 92.781 59.1088 92.625 58.5888 92.313C58.0688 91.9923 57.6571 91.559 57.3538 91.013C57.0591 90.4583 56.9118 89.8343 56.9118 89.141C56.9118 88.439 57.0591 87.815 57.3538 87.269C57.6571 86.723 58.0644 86.294 58.5758 85.982C59.0958 85.6613 59.6851 85.501 60.3438 85.501C60.9418 85.501 61.4748 85.631 61.9428 85.891C62.4108 86.151 62.7791 86.502 63.0478 86.944L62.8918 87.217V82.784H63.8668V92.625H62.8918V91.065L63.0478 91.208C62.8051 91.7107 62.4411 92.1007 61.9558 92.378C61.4791 92.6467 60.9418 92.781 60.3438 92.781ZM60.3958 91.806C60.8638 91.806 61.2841 91.689 61.6568 91.455C62.0381 91.221 62.3371 90.9047 62.5538 90.506C62.7791 90.0987 62.8918 89.6437 62.8918 89.141C62.8918 88.6383 62.7791 88.1877 62.5538 87.789C62.3371 87.3817 62.0381 87.061 61.6568 86.827C61.2841 86.593 60.8638 86.476 60.3958 86.476C59.9364 86.476 59.5204 86.593 59.1478 86.827C58.7751 87.061 58.4804 87.3773 58.2638 87.776C58.0558 88.1747 57.9518 88.6297 57.9518 89.141C57.9518 89.6437 58.0558 90.0987 58.2638 90.506C58.4804 90.9047 58.7708 91.221 59.1348 91.455C59.5074 91.689 59.9278 91.806 60.3958 91.806Z" fill="#44414C"/>
<defs>
<filter id="filter0_ddd_3331_80520" x="0.615302" y="0.375175" width="79.8944" height="72.2694" filterUnits="userSpaceOnUse" color-interpolation-filters="sRGB">
<feFlood flood-opacity="0" result="BackgroundImageFix"/>
<feColorMatrix in="SourceAlpha" type="matrix" values="0 0 0 0 0 0 0 0 0 0 0 0 0 0 0 0 0 0 127 0" result="hardAlpha"/>
<feOffset dy="0.264619"/>
<feGaussianBlur stdDeviation="0.622633"/>
<feColorMatrix type="matrix" values="0 0 0 0 0.0862745 0 0 0 0 0.0235294 0 0 0 0 0.67451 0 0 0 0.0112458 0"/>
<feBlend mode="normal" in2="BackgroundImageFix" result="effect1_dropShadow_3331_80520"/>
<feColorMatrix in="SourceAlpha" type="matrix" values="0 0 0 0 0 0 0 0 0 0 0 0 0 0 0 0 0 0 127 0" result="hardAlpha"/>
<feOffset dy="0.635916"/>
<feGaussianBlur stdDeviation="1.49627"/>
<feColorMatrix type="matrix" values="0 0 0 0 0.0862745 0 0 0 0 0.0235294 0 0 0 0 0.67451 0 0 0 0.0161557 0"/>
<feBlend mode="normal" in2="effect1_dropShadow_3331_80520" result="effect2_dropShadow_3331_80520"/>
<feColorMatrix in="SourceAlpha" type="matrix" values="0 0 0 0 0 0 0 0 0 0 0 0 0 0 0 0 0 0 127 0" result="hardAlpha"/>
<feOffset dy="1.19737"/>
<feGaussianBlur stdDeviation="2.81735"/>
<feColorMatrix type="matrix" values="0 0 0 0 0.0862745 0 0 0 0 0.0235294 0 0 0 0 0.67451 0 0 0 0.02 0"/>
<feBlend mode="normal" in2="effect2_dropShadow_3331_80520" result="effect3_dropShadow_3331_80520"/>
<feBlend mode="normal" in="SourceGraphic" in2="effect3_dropShadow_3331_80520" result="shape"/>
</filter>
<linearGradient id="paint0_linear_3331_80520" x1="74.875" y1="65.8125" x2="53.1734" y2="-8.73841" gradientUnits="userSpaceOnUse">
<stop offset="0.107833" stop-color="#50E6FE"/>
<stop offset="1" stop-color="#733BFF"/>
</linearGradient>
</defs>
</svg>
