<svg width="81" height="98" viewBox="0 0 81 98" fill="none" xmlns="http://www.w3.org/2000/svg">
<g filter="url(#filter0_ddd_3331_80530)">
<path d="M55.3316 4.8125H26.2934C24.414 4.8125 22.6757 5.82104 21.7316 7.44889L7.20809 32.6717C6.26397 34.3084 6.26397 36.3166 7.20809 37.9533L21.7316 63.1761C22.6757 64.8128 24.414 65.8125 26.2934 65.8125H55.3316C57.211 65.8125 58.9493 64.804 59.8934 63.1761L74.4169 37.9533C75.361 36.3166 75.361 34.3084 74.4169 32.6717L59.8934 7.44889C58.9493 5.81219 57.211 4.8125 55.3316 4.8125Z" fill="white"/>
</g>
<g clip-path="url(#clip0_3331_80530)">
<path d="M39.0155 43.9675C39.154 43.9677 39.2911 43.9951 39.4189 44.0483C39.5468 44.1015 39.6629 44.1793 39.7607 44.2774C39.8585 44.3754 39.936 44.4918 39.9888 44.6198C40.0416 44.7478 40.0687 44.885 40.0685 45.0235C40.0683 45.162 40.0408 45.299 39.9877 45.4269C39.9345 45.5548 39.8566 45.6709 39.7586 45.7687C39.6605 45.8665 39.5442 45.944 39.4162 45.9968C39.2881 46.0496 39.151 46.0767 39.0125 46.0765C38.7328 46.0761 38.4648 45.9646 38.2673 45.7666C38.0698 45.5685 37.9591 45.3001 37.9595 45.0205C37.9599 44.7408 38.0714 44.4727 38.2694 44.2753C38.4675 44.0778 38.7358 43.9671 39.0155 43.9675ZM55.5515 37.447C55.413 37.4469 55.2759 37.4195 55.148 37.3664C55.0201 37.3133 54.9039 37.2356 54.8061 37.1376C54.7082 37.0396 54.6306 36.9233 54.5777 36.7953C54.5248 36.6673 54.4977 36.5302 54.4978 36.3917C54.4978 36.2532 54.5252 36.1161 54.5783 35.9882C54.6314 35.8603 54.7091 35.7442 54.8071 35.6463C54.9051 35.5485 55.0214 35.4709 55.1494 35.418C55.2774 35.3651 55.4145 35.3379 55.553 35.338C55.8327 35.3382 56.1008 35.4495 56.2984 35.6474C56.496 35.8453 56.6069 36.1136 56.6067 36.3932C56.6065 36.6729 56.4953 36.941 56.2974 37.1386C56.0995 37.3363 55.8312 37.4472 55.5515 37.447ZM55.5515 33.133C54.6869 33.1338 53.8579 33.4776 53.2465 34.089C52.6351 34.7004 52.2913 35.5293 52.2905 36.394C52.2905 36.7435 52.349 37.0915 52.463 37.4305L41.6915 43.165C41.3928 42.7313 40.9932 42.3768 40.527 42.1319C40.0608 41.8871 39.5421 41.7592 39.0155 41.7595C37.772 41.7595 36.6395 42.472 36.0905 43.5835L26.414 38.4805C25.391 37.9435 24.626 36.2605 24.707 34.7275C24.749 33.928 25.025 33.307 25.4465 33.067C25.7135 32.917 26.0345 32.929 26.3765 33.1075L26.4395 33.142C29.0045 34.492 37.3955 38.9125 37.7495 39.076C38.294 39.3295 38.597 39.4315 39.527 38.9905L56.873 29.9695C57.128 29.8735 57.425 29.629 57.425 29.2585C57.425 28.7455 56.894 28.543 56.8925 28.543C55.9055 28.0705 54.389 27.361 52.91 26.668C49.748 25.1875 46.1645 23.5105 44.591 22.6855C43.232 21.9745 42.1385 22.5745 41.9435 22.6945L41.5655 22.882C34.4825 26.3845 25.0025 31.0795 24.4625 31.408C23.498 31.996 22.8995 33.1675 22.8215 34.621C22.7015 36.9265 23.876 39.331 25.5575 40.2115L35.7905 45.4885C35.9032 46.2636 36.2911 46.9724 36.8832 47.4852C37.4753 47.998 38.2322 48.2806 39.0155 48.2815C39.871 48.28 40.6918 47.9429 41.3013 47.3426C41.9108 46.7424 42.2605 45.9268 42.275 45.0715L53.546 38.962C54.116 39.409 54.8255 39.6535 55.5515 39.6535C56.4161 39.6527 57.2451 39.3089 57.8565 38.6975C58.4679 38.0861 58.8117 37.2571 58.8125 36.3925C58.8117 35.5278 58.4679 34.6989 57.8565 34.0875C57.2451 33.4761 56.4161 33.1323 55.5515 33.1315" fill="url(#paint0_linear_3331_80530)"/>
</g>
<path d="M20.4463 92.781C19.7617 92.781 19.1333 92.6597 18.5613 92.417C17.9893 92.1657 17.491 91.819 17.0663 91.377C16.6503 90.9263 16.3253 90.3977 16.0913 89.791C15.8573 89.1843 15.7403 88.517 15.7403 87.789C15.7403 87.061 15.8573 86.3937 16.0913 85.787C16.3253 85.1803 16.6503 84.6517 17.0663 84.201C17.491 83.7503 17.9893 83.4037 18.5613 83.161C19.1333 82.9097 19.7617 82.784 20.4463 82.784C21.105 82.784 21.6943 82.901 22.2143 83.135C22.743 83.369 23.185 83.6723 23.5403 84.045C23.9043 84.409 24.1643 84.7947 24.3203 85.202L23.3843 85.657C23.1417 85.0677 22.769 84.604 22.2663 84.266C21.7637 83.928 21.157 83.759 20.4463 83.759C19.7357 83.759 19.103 83.928 18.5483 84.266C17.9937 84.604 17.5603 85.0763 17.2483 85.683C16.9363 86.281 16.7803 86.983 16.7803 87.789C16.7803 88.5863 16.9363 89.2883 17.2483 89.895C17.5603 90.5017 17.9937 90.974 18.5483 91.312C19.103 91.6413 19.7357 91.806 20.4463 91.806C21.079 91.806 21.6467 91.6673 22.1493 91.39C22.6607 91.1127 23.0637 90.7357 23.3583 90.259C23.653 89.7737 23.8003 89.219 23.8003 88.595V88.062L24.2683 88.53H20.4463V87.62H24.8403V88.426C24.8403 89.0587 24.7277 89.6437 24.5023 90.181C24.277 90.7097 23.965 91.169 23.5663 91.559C23.1677 91.949 22.6997 92.2523 22.1623 92.469C21.6337 92.677 21.0617 92.781 20.4463 92.781ZM26.5601 92.625V85.657H27.5351V92.625H26.5601ZM26.5601 84.37V82.94H27.5351V84.37H26.5601ZM32.1958 92.703C31.5718 92.703 31.0908 92.521 30.7528 92.157C30.4148 91.793 30.2458 91.273 30.2458 90.597V86.632H28.9588V85.657H29.2838C29.5785 85.657 29.8125 85.5617 29.9858 85.371C30.1591 85.1717 30.2458 84.9247 30.2458 84.63V84.045H31.2208V85.657H32.7548V86.632H31.2208V90.597C31.2208 90.831 31.2555 91.039 31.3248 91.221C31.3941 91.3943 31.5111 91.533 31.6758 91.637C31.8491 91.741 32.0788 91.793 32.3648 91.793C32.4341 91.793 32.5165 91.7887 32.6118 91.78C32.7071 91.7713 32.7895 91.7627 32.8588 91.754V92.625C32.7548 92.651 32.6378 92.6683 32.5078 92.677C32.3778 92.6943 32.2738 92.703 32.1958 92.703ZM34.7138 92.625V82.94H38.7828C39.3288 82.94 39.8012 83.044 40.1998 83.252C40.6072 83.4513 40.9192 83.733 41.1358 84.097C41.3612 84.461 41.4738 84.8857 41.4738 85.371C41.4738 85.8737 41.3482 86.32 41.0968 86.71C40.8542 87.0913 40.5032 87.3817 40.0438 87.581L40.0308 87.269C40.4122 87.4077 40.7372 87.6027 41.0058 87.854C41.2832 88.1053 41.4955 88.4 41.6428 88.738C41.7902 89.0673 41.8638 89.4227 41.8638 89.804C41.8638 90.6707 41.5865 91.3597 41.0318 91.871C40.4858 92.3737 39.7405 92.625 38.7958 92.625H34.7138ZM35.7538 91.65H38.7958C39.4112 91.65 39.9008 91.4897 40.2648 91.169C40.6375 90.8397 40.8238 90.389 40.8238 89.817C40.8238 89.2537 40.6375 88.8073 40.2648 88.478C39.9008 88.14 39.4112 87.971 38.7958 87.971H35.7538V91.65ZM35.7538 87.035H38.7048C39.2248 87.035 39.6408 86.8833 39.9528 86.58C40.2735 86.2767 40.4338 85.8867 40.4338 85.41C40.4338 84.9247 40.2735 84.5563 39.9528 84.305C39.6408 84.045 39.2248 83.915 38.7048 83.915H35.7538V87.035ZM46.8475 92.781C46.1888 92.781 45.5908 92.625 45.0535 92.313C44.5162 91.9923 44.0872 91.559 43.7665 91.013C43.4545 90.4583 43.2985 89.83 43.2985 89.128C43.2985 88.4347 43.4545 87.815 43.7665 87.269C44.0785 86.723 44.4988 86.294 45.0275 85.982C45.5648 85.6613 46.1715 85.501 46.8475 85.501C47.5235 85.501 48.1258 85.657 48.6545 85.969C49.1918 86.281 49.6122 86.71 49.9155 87.256C50.2275 87.802 50.3835 88.426 50.3835 89.128C50.3835 89.8387 50.2232 90.4713 49.9025 91.026C49.5818 91.572 49.1528 92.001 48.6155 92.313C48.0868 92.625 47.4975 92.781 46.8475 92.781ZM46.8475 91.806C47.3155 91.806 47.7358 91.689 48.1085 91.455C48.4898 91.221 48.7888 90.9003 49.0055 90.493C49.2308 90.0857 49.3435 89.6307 49.3435 89.128C49.3435 88.6253 49.2308 88.1747 49.0055 87.776C48.7888 87.3773 48.4898 87.061 48.1085 86.827C47.7358 86.593 47.3155 86.476 46.8475 86.476C46.3795 86.476 45.9548 86.593 45.5735 86.827C45.2008 87.061 44.9018 87.3773 44.6765 87.776C44.4512 88.1747 44.3385 88.6253 44.3385 89.128C44.3385 89.6307 44.4512 90.0857 44.6765 90.493C44.9018 90.9003 45.2008 91.221 45.5735 91.455C45.9548 91.689 46.3795 91.806 46.8475 91.806ZM55.3661 92.781C54.7074 92.781 54.1094 92.625 53.5721 92.313C53.0347 91.9923 52.6057 91.559 52.2851 91.013C51.9731 90.4583 51.8171 89.83 51.8171 89.128C51.8171 88.4347 51.9731 87.815 52.2851 87.269C52.5971 86.723 53.0174 86.294 53.5461 85.982C54.0834 85.6613 54.6901 85.501 55.3661 85.501C56.0421 85.501 56.6444 85.657 57.1731 85.969C57.7104 86.281 58.1307 86.71 58.4341 87.256C58.7461 87.802 58.9021 88.426 58.9021 89.128C58.9021 89.8387 58.7417 90.4713 58.4211 91.026C58.1004 91.572 57.6714 92.001 57.1341 92.313C56.6054 92.625 56.0161 92.781 55.3661 92.781ZM55.3661 91.806C55.8341 91.806 56.2544 91.689 56.6271 91.455C57.0084 91.221 57.3074 90.9003 57.5241 90.493C57.7494 90.0857 57.8621 89.6307 57.8621 89.128C57.8621 88.6253 57.7494 88.1747 57.5241 87.776C57.3074 87.3773 57.0084 87.061 56.6271 86.827C56.2544 86.593 55.8341 86.476 55.3661 86.476C54.8981 86.476 54.4734 86.593 54.0921 86.827C53.7194 87.061 53.4204 87.3773 53.1951 87.776C52.9697 88.1747 52.8571 88.6253 52.8571 89.128C52.8571 89.6307 52.9697 90.0857 53.1951 90.493C53.4204 90.9003 53.7194 91.221 54.0921 91.455C54.4734 91.689 54.8981 91.806 55.3661 91.806ZM60.6216 92.625V82.784H61.5966V89.674L61.1806 89.609L65.0936 85.657H66.3546L63.6246 88.452L66.6016 92.625H65.4316L62.6366 88.764L63.2606 88.816L61.2716 90.87L61.5966 90.064V92.625H60.6216Z" fill="#6F6781"/>
<defs>
<filter id="filter0_ddd_3331_80530" x="0.865302" y="0.375175" width="79.8944" height="72.2694" filterUnits="userSpaceOnUse" color-interpolation-filters="sRGB">
<feFlood flood-opacity="0" result="BackgroundImageFix"/>
<feColorMatrix in="SourceAlpha" type="matrix" values="0 0 0 0 0 0 0 0 0 0 0 0 0 0 0 0 0 0 127 0" result="hardAlpha"/>
<feOffset dy="0.264619"/>
<feGaussianBlur stdDeviation="0.622633"/>
<feColorMatrix type="matrix" values="0 0 0 0 0.0862745 0 0 0 0 0.0235294 0 0 0 0 0.67451 0 0 0 0.0112458 0"/>
<feBlend mode="normal" in2="BackgroundImageFix" result="effect1_dropShadow_3331_80530"/>
<feColorMatrix in="SourceAlpha" type="matrix" values="0 0 0 0 0 0 0 0 0 0 0 0 0 0 0 0 0 0 127 0" result="hardAlpha"/>
<feOffset dy="0.635916"/>
<feGaussianBlur stdDeviation="1.49627"/>
<feColorMatrix type="matrix" values="0 0 0 0 0.0862745 0 0 0 0 0.0235294 0 0 0 0 0.67451 0 0 0 0.0161557 0"/>
<feBlend mode="normal" in2="effect1_dropShadow_3331_80530" result="effect2_dropShadow_3331_80530"/>
<feColorMatrix in="SourceAlpha" type="matrix" values="0 0 0 0 0 0 0 0 0 0 0 0 0 0 0 0 0 0 127 0" result="hardAlpha"/>
<feOffset dy="1.19737"/>
<feGaussianBlur stdDeviation="2.81735"/>
<feColorMatrix type="matrix" values="0 0 0 0 0.0862745 0 0 0 0 0.0235294 0 0 0 0 0.67451 0 0 0 0.02 0"/>
<feBlend mode="normal" in2="effect2_dropShadow_3331_80530" result="effect3_dropShadow_3331_80530"/>
<feBlend mode="normal" in="SourceGraphic" in2="effect3_dropShadow_3331_80530" result="shape"/>
</filter>
<linearGradient id="paint0_linear_3331_80530" x1="58.8125" y1="48.2815" x2="51.1269" y2="15.7091" gradientUnits="userSpaceOnUse">
<stop offset="0.107833" stop-color="#50E6FE"/>
<stop offset="1" stop-color="#733BFF"/>
</linearGradient>
<clipPath id="clip0_3331_80530">
<rect width="36" height="36" fill="white" transform="translate(22.8125 17.3125)"/>
</clipPath>
</defs>
</svg>
