<svg width="81" height="98" viewBox="0 0 81 98" fill="none" xmlns="http://www.w3.org/2000/svg">
<g filter="url(#filter0_ddd_3331_80525)">
<path d="M54.7066 4.8125H25.6684C23.789 4.8125 22.0507 5.82104 21.1066 7.44889L6.58309 32.6717C5.63897 34.3084 5.63897 36.3166 6.58309 37.9533L21.1066 63.1761C22.0507 64.8128 23.789 65.8125 25.6684 65.8125H54.7066C56.586 65.8125 58.3243 64.804 59.2684 63.1761L73.7919 37.9533C74.736 36.3166 74.736 34.3084 73.7919 32.6717L59.2684 7.44889C58.3243 5.81219 56.586 4.8125 54.7066 4.8125Z" fill="white"/>
</g>
<path d="M42.3013 35.3124C42.3013 40.4878 38.1345 44.6832 32.9944 44.6832C27.8543 44.6832 23.6875 40.4878 23.6875 35.3124C23.6875 30.1371 27.8543 25.9417 32.9944 25.9417C38.1344 25.9417 42.3013 30.1371 42.3013 35.3124Z" fill="url(#paint0_linear_3331_80525)"/>
<path d="M52.5112 35.3124C52.5112 40.1841 50.4277 44.1333 47.8577 44.1333C45.2877 44.1333 43.2043 40.1841 43.2043 35.3124C43.2043 30.4407 45.2877 26.4915 47.8577 26.4915C50.4278 26.4915 52.5112 30.4407 52.5112 35.3124Z" fill="url(#paint1_linear_3331_80525)"/>
<path d="M56.6875 35.3124C56.6875 39.6772 55.9547 43.2155 55.0508 43.2155C54.1469 43.2155 53.4142 39.6772 53.4142 35.3124C53.4142 30.9475 54.1469 27.4092 55.0508 27.4092C55.9547 27.4092 56.6875 30.9475 56.6875 35.3124Z" fill="url(#paint2_linear_3331_80525)"/>
<path d="M16.4487 92.625V82.94H17.3587L20.9987 88.218H20.4917L24.1187 82.94H25.0287V92.625H23.9887V84.344L24.3267 84.474L20.7647 89.635H20.7127L17.1637 84.474L17.4887 84.344V92.625H16.4487ZM30.3449 92.781C29.6949 92.781 29.1055 92.625 28.5769 92.313C28.0569 91.9923 27.6452 91.5547 27.3419 91C27.0385 90.4453 26.8869 89.817 26.8869 89.115C26.8869 88.413 27.0342 87.7933 27.3289 87.256C27.6235 86.71 28.0222 86.281 28.5249 85.969C29.0362 85.657 29.6082 85.501 30.2409 85.501C30.7435 85.501 31.1899 85.5963 31.5799 85.787C31.9785 85.969 32.3165 86.2203 32.5939 86.541C32.8712 86.853 33.0835 87.2083 33.2309 87.607C33.3782 87.997 33.4519 88.4 33.4519 88.816C33.4519 88.9027 33.4475 89.0023 33.4389 89.115C33.4302 89.219 33.4172 89.3273 33.3999 89.44H27.5109V88.53H32.8409L32.3729 88.92C32.4509 88.4433 32.3945 88.0187 32.2039 87.646C32.0219 87.2647 31.7575 86.9657 31.4109 86.749C31.0642 86.5237 30.6742 86.411 30.2409 86.411C29.8075 86.411 29.4045 86.5237 29.0319 86.749C28.6679 86.9743 28.3819 87.2907 28.1739 87.698C27.9659 88.0967 27.8835 88.5733 27.9269 89.128C27.8835 89.6827 27.9702 90.168 28.1869 90.584C28.4122 90.9913 28.7155 91.3077 29.0969 91.533C29.4869 91.7583 29.9029 91.871 30.3449 91.871C30.8562 91.871 31.2852 91.7497 31.6319 91.507C31.9785 91.2643 32.2602 90.961 32.4769 90.597L33.3089 91.039C33.1702 91.351 32.9579 91.6413 32.6719 91.91C32.3859 92.17 32.0435 92.3823 31.6449 92.547C31.2549 92.703 30.8215 92.781 30.3449 92.781ZM38.3169 92.781C37.6669 92.781 37.0819 92.625 36.5619 92.313C36.0419 91.9923 35.6303 91.559 35.3269 91.013C35.0323 90.4583 34.8849 89.8343 34.8849 89.141C34.8849 88.439 35.0323 87.815 35.3269 87.269C35.6303 86.723 36.0376 86.294 36.5489 85.982C37.0689 85.6613 37.6583 85.501 38.3169 85.501C38.9149 85.501 39.4479 85.631 39.9159 85.891C40.3839 86.151 40.7523 86.502 41.0209 86.944L40.8649 87.217V82.784H41.8399V92.625H40.8649V91.065L41.0209 91.208C40.7783 91.7107 40.4143 92.1007 39.9289 92.378C39.4523 92.6467 38.9149 92.781 38.3169 92.781ZM38.3689 91.806C38.8369 91.806 39.2573 91.689 39.6299 91.455C40.0113 91.221 40.3103 90.9047 40.5269 90.506C40.7523 90.0987 40.8649 89.6437 40.8649 89.141C40.8649 88.6383 40.7523 88.1877 40.5269 87.789C40.3103 87.3817 40.0113 87.061 39.6299 86.827C39.2573 86.593 38.8369 86.476 38.3689 86.476C37.9096 86.476 37.4936 86.593 37.1209 86.827C36.7483 87.061 36.4536 87.3773 36.2369 87.776C36.0289 88.1747 35.9249 88.6297 35.9249 89.141C35.9249 89.6437 36.0289 90.0987 36.2369 90.506C36.4536 90.9047 36.7439 91.221 37.1079 91.455C37.4806 91.689 37.9009 91.806 38.3689 91.806ZM43.8418 92.625V85.657H44.8168V92.625H43.8418ZM43.8418 84.37V82.94H44.8168V84.37H43.8418ZM49.2825 92.781C48.7972 92.781 48.3552 92.6683 47.9565 92.443C47.5579 92.209 47.2415 91.8883 47.0075 91.481C46.7822 91.065 46.6695 90.5883 46.6695 90.051V85.657H47.6445V89.934C47.6445 90.3067 47.7182 90.636 47.8655 90.922C48.0215 91.1993 48.2339 91.416 48.5025 91.572C48.7799 91.728 49.0962 91.806 49.4515 91.806C49.8069 91.806 50.1232 91.728 50.4005 91.572C50.6779 91.4073 50.8945 91.1777 51.0505 90.883C51.2065 90.5797 51.2845 90.22 51.2845 89.804V85.657H52.2595V92.625H51.2845V91.273L51.5055 91.325C51.3409 91.7757 51.0592 92.131 50.6605 92.391C50.2619 92.651 49.8025 92.781 49.2825 92.781ZM54.2647 92.625V85.657H55.2397V86.983L55.0837 86.788C55.2743 86.3807 55.556 86.0643 55.9287 85.839C56.31 85.6137 56.726 85.501 57.1767 85.501C57.714 85.501 58.1993 85.6527 58.6327 85.956C59.066 86.2593 59.3737 86.6537 59.5557 87.139L59.2827 87.152C59.456 86.6147 59.755 86.2073 60.1797 85.93C60.613 85.644 61.0897 85.501 61.6097 85.501C62.0777 85.501 62.5067 85.6137 62.8967 85.839C63.2953 86.0643 63.6117 86.3763 63.8457 86.775C64.0883 87.165 64.2097 87.607 64.2097 88.101V92.625H63.2347V88.478C63.2347 88.0533 63.1567 87.6937 63.0007 87.399C62.8533 87.1043 62.6497 86.879 62.3897 86.723C62.1297 86.5583 61.8307 86.476 61.4927 86.476C61.1633 86.476 60.8643 86.5583 60.5957 86.723C60.327 86.879 60.1147 87.1087 59.9587 87.412C59.8027 87.7067 59.7247 88.062 59.7247 88.478V92.625H58.7497V88.478C58.7497 88.0533 58.6717 87.6937 58.5157 87.399C58.3683 87.1043 58.1647 86.879 57.9047 86.723C57.6447 86.5583 57.3457 86.476 57.0077 86.476C56.6697 86.476 56.3663 86.5583 56.0977 86.723C55.8377 86.879 55.6297 87.1087 55.4737 87.412C55.3177 87.7067 55.2397 88.062 55.2397 88.478V92.625H54.2647Z" fill="#6F6781"/>
<defs>
<filter id="filter0_ddd_3331_80525" x="0.240302" y="0.375175" width="79.8944" height="72.2694" filterUnits="userSpaceOnUse" color-interpolation-filters="sRGB">
<feFlood flood-opacity="0" result="BackgroundImageFix"/>
<feColorMatrix in="SourceAlpha" type="matrix" values="0 0 0 0 0 0 0 0 0 0 0 0 0 0 0 0 0 0 127 0" result="hardAlpha"/>
<feOffset dy="0.264619"/>
<feGaussianBlur stdDeviation="0.622633"/>
<feColorMatrix type="matrix" values="0 0 0 0 0.0862745 0 0 0 0 0.0235294 0 0 0 0 0.67451 0 0 0 0.0112458 0"/>
<feBlend mode="normal" in2="BackgroundImageFix" result="effect1_dropShadow_3331_80525"/>
<feColorMatrix in="SourceAlpha" type="matrix" values="0 0 0 0 0 0 0 0 0 0 0 0 0 0 0 0 0 0 127 0" result="hardAlpha"/>
<feOffset dy="0.635916"/>
<feGaussianBlur stdDeviation="1.49627"/>
<feColorMatrix type="matrix" values="0 0 0 0 0.0862745 0 0 0 0 0.0235294 0 0 0 0 0.67451 0 0 0 0.0161557 0"/>
<feBlend mode="normal" in2="effect1_dropShadow_3331_80525" result="effect2_dropShadow_3331_80525"/>
<feColorMatrix in="SourceAlpha" type="matrix" values="0 0 0 0 0 0 0 0 0 0 0 0 0 0 0 0 0 0 127 0" result="hardAlpha"/>
<feOffset dy="1.19737"/>
<feGaussianBlur stdDeviation="2.81735"/>
<feColorMatrix type="matrix" values="0 0 0 0 0.0862745 0 0 0 0 0.0235294 0 0 0 0 0.67451 0 0 0 0.02 0"/>
<feBlend mode="normal" in2="effect2_dropShadow_3331_80525" result="effect3_dropShadow_3331_80525"/>
<feBlend mode="normal" in="SourceGraphic" in2="effect3_dropShadow_3331_80525" result="shape"/>
</filter>
<linearGradient id="paint0_linear_3331_80525" x1="42.3013" y1="44.6832" x2="34.9122" y2="22.2738" gradientUnits="userSpaceOnUse">
<stop offset="0.107833" stop-color="#50E6FE"/>
<stop offset="1" stop-color="#733BFF"/>
</linearGradient>
<linearGradient id="paint1_linear_3331_80525" x1="52.5112" y1="44.1333" x2="42.0312" y2="27.251" gradientUnits="userSpaceOnUse">
<stop offset="0.107833" stop-color="#50E6FE"/>
<stop offset="1" stop-color="#733BFF"/>
</linearGradient>
<linearGradient id="paint2_linear_3331_80525" x1="56.6875" y1="43.2155" x2="47.2219" y2="37.2299" gradientUnits="userSpaceOnUse">
<stop offset="0.107833" stop-color="#50E6FE"/>
<stop offset="1" stop-color="#733BFF"/>
</linearGradient>
</defs>
</svg>
