<svg width="81" height="98" viewBox="0 0 81 98" fill="none" xmlns="http://www.w3.org/2000/svg">
<g filter="url(#filter0_ddd_3331_80510)">
<path d="M54.8316 4.8125H25.7934C23.914 4.8125 22.1757 5.82104 21.2316 7.44889L6.70809 32.6717C5.76397 34.3084 5.76397 36.3166 6.70809 37.9533L21.2316 63.1761C22.1757 64.8128 23.914 65.8125 25.7934 65.8125H54.8316C56.711 65.8125 58.4493 64.804 59.3934 63.1761L73.9169 37.9533C74.861 36.3166 74.861 34.3084 73.9169 32.6717L59.3934 7.44889C58.4493 5.81219 56.711 4.8125 54.8316 4.8125Z" fill="white"/>
</g>
<path d="M40.3125 50.3125C32.028 50.3125 25.3125 43.597 25.3125 35.3125C25.3125 27.028 32.028 20.3125 40.3125 20.3125C48.597 20.3125 55.3125 27.028 55.3125 35.3125C55.3125 43.597 48.597 50.3125 40.3125 50.3125ZM35.6475 37.0675L35.667 37.057L36.972 41.362C37.14 41.8285 37.371 41.9125 37.6515 41.8735C37.9335 41.836 38.082 41.6845 38.2665 41.5075L40.0485 39.7855L43.8735 42.6175C44.5725 43.003 45.075 42.8035 45.249 41.9695L47.7345 30.2365C48.009 29.1445 47.529 28.7065 46.6815 29.0545L32.082 34.6945C31.086 35.0935 31.092 35.6515 31.902 35.899L35.6475 37.069V37.0675Z" fill="url(#paint0_linear_3331_80510)"/>
<path d="M14.6579 92.625V83.915H11.9799V82.94H18.3499V83.915H15.6979V92.625H14.6579ZM21.7482 92.781C21.0982 92.781 20.5089 92.625 19.9802 92.313C19.4602 91.9923 19.0485 91.5547 18.7452 91C18.4419 90.4453 18.2902 89.817 18.2902 89.115C18.2902 88.413 18.4375 87.7933 18.7322 87.256C19.0269 86.71 19.4255 86.281 19.9282 85.969C20.4395 85.657 21.0115 85.501 21.6442 85.501C22.1469 85.501 22.5932 85.5963 22.9832 85.787C23.3819 85.969 23.7199 86.2203 23.9972 86.541C24.2745 86.853 24.4869 87.2083 24.6342 87.607C24.7815 87.997 24.8552 88.4 24.8552 88.816C24.8552 88.9027 24.8509 89.0023 24.8422 89.115C24.8335 89.219 24.8205 89.3273 24.8032 89.44H18.9142V88.53H24.2442L23.7762 88.92C23.8542 88.4433 23.7979 88.0187 23.6072 87.646C23.4252 87.2647 23.1609 86.9657 22.8142 86.749C22.4675 86.5237 22.0775 86.411 21.6442 86.411C21.2109 86.411 20.8079 86.5237 20.4352 86.749C20.0712 86.9743 19.7852 87.2907 19.5772 87.698C19.3692 88.0967 19.2869 88.5733 19.3302 89.128C19.2869 89.6827 19.3735 90.168 19.5902 90.584C19.8155 90.9913 20.1189 91.3077 20.5002 91.533C20.8902 91.7583 21.3062 91.871 21.7482 91.871C22.2595 91.871 22.6885 91.7497 23.0352 91.507C23.3819 91.2643 23.6635 90.961 23.8802 90.597L24.7122 91.039C24.5735 91.351 24.3612 91.6413 24.0752 91.91C23.7892 92.17 23.4469 92.3823 23.0482 92.547C22.6582 92.703 22.2249 92.781 21.7482 92.781ZM26.5742 92.625V82.784H27.5492V92.625H26.5742ZM32.7169 92.781C32.0669 92.781 31.4776 92.625 30.9489 92.313C30.4289 91.9923 30.0173 91.5547 29.7139 91C29.4106 90.4453 29.2589 89.817 29.2589 89.115C29.2589 88.413 29.4063 87.7933 29.7009 87.256C29.9956 86.71 30.3943 86.281 30.8969 85.969C31.4083 85.657 31.9803 85.501 32.6129 85.501C33.1156 85.501 33.5619 85.5963 33.9519 85.787C34.3506 85.969 34.6886 86.2203 34.9659 86.541C35.2433 86.853 35.4556 87.2083 35.6029 87.607C35.7503 87.997 35.8239 88.4 35.8239 88.816C35.8239 88.9027 35.8196 89.0023 35.8109 89.115C35.8023 89.219 35.7893 89.3273 35.7719 89.44H29.8829V88.53H35.2129L34.7449 88.92C34.8229 88.4433 34.7666 88.0187 34.5759 87.646C34.3939 87.2647 34.1296 86.9657 33.7829 86.749C33.4363 86.5237 33.0463 86.411 32.6129 86.411C32.1796 86.411 31.7766 86.5237 31.4039 86.749C31.0399 86.9743 30.7539 87.2907 30.5459 87.698C30.3379 88.0967 30.2556 88.5733 30.2989 89.128C30.2556 89.6827 30.3423 90.168 30.5589 90.584C30.7843 90.9913 31.0876 91.3077 31.4689 91.533C31.8589 91.7583 32.2749 91.871 32.7169 91.871C33.2283 91.871 33.6573 91.7497 34.0039 91.507C34.3506 91.2643 34.6323 90.961 34.8489 90.597L35.6809 91.039C35.5423 91.351 35.3299 91.6413 35.0439 91.91C34.7579 92.17 34.4156 92.3823 34.0169 92.547C33.6269 92.703 33.1936 92.781 32.7169 92.781ZM40.845 95.485C40.3683 95.485 39.9263 95.4113 39.519 95.264C39.1203 95.1167 38.7737 94.913 38.479 94.653C38.193 94.4017 37.972 94.107 37.816 93.769L38.713 93.288C38.8517 93.6173 39.0987 93.9033 39.454 94.146C39.8093 94.3887 40.2643 94.51 40.819 94.51C41.2437 94.51 41.6337 94.4277 41.989 94.263C42.3443 94.0983 42.6303 93.8557 42.847 93.535C43.0637 93.2143 43.172 92.82 43.172 92.352V90.805L43.328 90.948C43.0853 91.4507 42.7257 91.8407 42.249 92.118C41.7723 92.3867 41.2523 92.521 40.689 92.521C40.039 92.521 39.454 92.365 38.934 92.053C38.414 91.741 38.0023 91.3207 37.699 90.792C37.4043 90.2547 37.257 89.661 37.257 89.011C37.257 88.3523 37.4043 87.7587 37.699 87.23C38.0023 86.7013 38.4097 86.281 38.921 85.969C39.441 85.657 40.0303 85.501 40.689 85.501C41.2523 85.501 41.7637 85.631 42.223 85.891C42.691 86.151 43.0593 86.502 43.328 86.944L43.172 87.217V85.657H44.147V92.352C44.147 92.95 44.004 93.483 43.718 93.951C43.4407 94.4277 43.0507 94.8003 42.548 95.069C42.054 95.3463 41.4863 95.485 40.845 95.485ZM40.741 91.546C41.1917 91.546 41.599 91.4333 41.963 91.208C42.327 90.974 42.6173 90.6663 42.834 90.285C43.0593 89.895 43.172 89.4703 43.172 89.011C43.172 88.5517 43.0593 88.1313 42.834 87.75C42.6173 87.36 42.327 87.0523 41.963 86.827C41.599 86.593 41.1917 86.476 40.741 86.476C40.2817 86.476 39.8657 86.593 39.493 86.827C39.1203 87.0523 38.8257 87.3557 38.609 87.737C38.401 88.1183 38.297 88.543 38.297 89.011C38.297 89.4703 38.401 89.895 38.609 90.285C38.8257 90.6663 39.116 90.974 39.48 91.208C39.8527 91.4333 40.273 91.546 40.741 91.546ZM46.1504 92.625V85.657H47.1254V86.801L46.9954 86.632C47.1601 86.3027 47.4071 86.0427 47.7364 85.852C48.0744 85.6613 48.4817 85.566 48.9584 85.566H49.4004V86.541H48.7894C48.2867 86.541 47.8837 86.697 47.5804 87.009C47.2771 87.321 47.1254 87.763 47.1254 88.335V92.625H46.1504ZM52.558 92.781C52.116 92.781 51.7217 92.6987 51.375 92.534C51.0283 92.3607 50.7553 92.1267 50.556 91.832C50.3567 91.5373 50.257 91.1993 50.257 90.818C50.257 90.454 50.335 90.1247 50.491 89.83C50.647 89.5267 50.8897 89.271 51.219 89.063C51.5483 88.855 51.9687 88.7077 52.48 88.621L55.21 88.166V89.05L52.714 89.466C52.2113 89.5527 51.8473 89.713 51.622 89.947C51.4053 90.181 51.297 90.4583 51.297 90.779C51.297 91.091 51.4183 91.3553 51.661 91.572C51.9123 91.7887 52.233 91.897 52.623 91.897C53.0997 91.897 53.5157 91.7973 53.871 91.598C54.2263 91.39 54.5037 91.1127 54.703 90.766C54.9023 90.4193 55.002 90.0337 55.002 89.609V87.841C55.002 87.425 54.8503 87.087 54.547 86.827C54.2437 86.567 53.8493 86.437 53.364 86.437C52.9393 86.437 52.5667 86.5453 52.246 86.762C51.9253 86.97 51.687 87.243 51.531 87.581L50.647 87.1C50.777 86.8053 50.9807 86.5367 51.258 86.294C51.544 86.0513 51.869 85.8607 52.233 85.722C52.597 85.5747 52.974 85.501 53.364 85.501C53.8753 85.501 54.326 85.6007 54.716 85.8C55.1147 85.9993 55.4223 86.2767 55.639 86.632C55.8643 86.9787 55.977 87.3817 55.977 87.841V92.625H55.002V91.234L55.145 91.377C55.0237 91.637 54.833 91.8753 54.573 92.092C54.3217 92.3 54.0227 92.469 53.676 92.599C53.338 92.7203 52.9653 92.781 52.558 92.781ZM57.9824 92.625V85.657H58.9574V86.983L58.8014 86.788C58.9921 86.3807 59.2738 86.0643 59.6464 85.839C60.0278 85.6137 60.4438 85.501 60.8944 85.501C61.4318 85.501 61.9171 85.6527 62.3504 85.956C62.7838 86.2593 63.0914 86.6537 63.2734 87.139L63.0004 87.152C63.1738 86.6147 63.4728 86.2073 63.8974 85.93C64.3308 85.644 64.8074 85.501 65.3274 85.501C65.7954 85.501 66.2244 85.6137 66.6144 85.839C67.0131 86.0643 67.3294 86.3763 67.5634 86.775C67.8061 87.165 67.9274 87.607 67.9274 88.101V92.625H66.9524V88.478C66.9524 88.0533 66.8744 87.6937 66.7184 87.399C66.5711 87.1043 66.3674 86.879 66.1074 86.723C65.8474 86.5583 65.5484 86.476 65.2104 86.476C64.8811 86.476 64.5821 86.5583 64.3134 86.723C64.0448 86.879 63.8324 87.1087 63.6764 87.412C63.5204 87.7067 63.4424 88.062 63.4424 88.478V92.625H62.4674V88.478C62.4674 88.0533 62.3894 87.6937 62.2334 87.399C62.0861 87.1043 61.8824 86.879 61.6224 86.723C61.3624 86.5583 61.0634 86.476 60.7254 86.476C60.3874 86.476 60.0841 86.5583 59.8154 86.723C59.5554 86.879 59.3474 87.1087 59.1914 87.412C59.0354 87.7067 58.9574 88.062 58.9574 88.478V92.625H57.9824Z" fill="#6F6781"/>
<defs>
<filter id="filter0_ddd_3331_80510" x="0.365302" y="0.375175" width="79.8944" height="72.2694" filterUnits="userSpaceOnUse" color-interpolation-filters="sRGB">
<feFlood flood-opacity="0" result="BackgroundImageFix"/>
<feColorMatrix in="SourceAlpha" type="matrix" values="0 0 0 0 0 0 0 0 0 0 0 0 0 0 0 0 0 0 127 0" result="hardAlpha"/>
<feOffset dy="0.264619"/>
<feGaussianBlur stdDeviation="0.622633"/>
<feColorMatrix type="matrix" values="0 0 0 0 0.0862745 0 0 0 0 0.0235294 0 0 0 0 0.67451 0 0 0 0.0112458 0"/>
<feBlend mode="normal" in2="BackgroundImageFix" result="effect1_dropShadow_3331_80510"/>
<feColorMatrix in="SourceAlpha" type="matrix" values="0 0 0 0 0 0 0 0 0 0 0 0 0 0 0 0 0 0 127 0" result="hardAlpha"/>
<feOffset dy="0.635916"/>
<feGaussianBlur stdDeviation="1.49627"/>
<feColorMatrix type="matrix" values="0 0 0 0 0.0862745 0 0 0 0 0.0235294 0 0 0 0 0.67451 0 0 0 0.0161557 0"/>
<feBlend mode="normal" in2="effect1_dropShadow_3331_80510" result="effect2_dropShadow_3331_80510"/>
<feColorMatrix in="SourceAlpha" type="matrix" values="0 0 0 0 0 0 0 0 0 0 0 0 0 0 0 0 0 0 127 0" result="hardAlpha"/>
<feOffset dy="1.19737"/>
<feGaussianBlur stdDeviation="2.81735"/>
<feColorMatrix type="matrix" values="0 0 0 0 0.0862745 0 0 0 0 0.0235294 0 0 0 0 0.67451 0 0 0 0.02 0"/>
<feBlend mode="normal" in2="effect2_dropShadow_3331_80510" result="effect3_dropShadow_3331_80510"/>
<feBlend mode="normal" in="SourceGraphic" in2="effect3_dropShadow_3331_80510" result="shape"/>
</filter>
<linearGradient id="paint0_linear_3331_80510" x1="55.3125" y1="50.3125" x2="43.5496" y2="14.3934" gradientUnits="userSpaceOnUse">
<stop offset="0.107833" stop-color="#50E6FE"/>
<stop offset="1" stop-color="#733BFF"/>
</linearGradient>
</defs>
</svg>
