<svg width="81" height="98" viewBox="0 0 81 98" fill="none" xmlns="http://www.w3.org/2000/svg">
<g filter="url(#filter0_ddd_3331_80515)">
<path d="M55.4566 4.8125H26.4184C24.539 4.8125 22.8007 5.82104 21.8566 7.44889L7.33309 32.6717C6.38897 34.3084 6.38897 36.3166 7.33309 37.9533L21.8566 63.1761C22.8007 64.8128 24.539 65.8125 26.4184 65.8125H55.4566C57.336 65.8125 59.0743 64.804 60.0184 63.1761L74.5419 37.9533C75.486 36.3166 75.486 34.3084 74.5419 32.6717L60.0184 7.44889C59.0743 5.81219 57.336 4.8125 55.4566 4.8125Z" fill="white"/>
</g>
<path d="M56.1805 25.7966C55.0353 26.3032 53.8209 26.6358 52.5775 26.7836C53.8881 25.9998 54.869 24.7662 55.3375 23.3126C54.1075 24.0446 52.759 24.5576 51.3535 24.8351C50.4094 23.825 49.158 23.1551 47.7939 22.9295C46.4298 22.7039 45.0294 22.9354 43.8104 23.5878C42.5914 24.2403 41.6221 25.2772 41.0532 26.5373C40.4843 27.7975 40.3476 29.2103 40.6645 30.5561C38.1701 30.4311 35.73 29.7829 33.5024 28.6536C31.2749 27.5243 29.3097 25.9392 27.7345 24.0011C27.1769 24.9588 26.8839 26.0475 26.8855 27.1556C26.8855 29.3306 27.9925 31.2521 29.6755 32.3771C28.6795 32.3458 27.7054 32.0768 26.8345 31.5926V31.6706C26.8348 33.1192 27.336 34.5231 28.2533 35.6442C29.1705 36.7654 30.4472 37.5348 31.867 37.8221C30.9424 38.0727 29.9729 38.1096 29.032 37.9301C29.4323 39.177 30.2125 40.2674 31.2634 41.0488C32.3143 41.8302 33.5832 42.2633 34.8925 42.2876C33.5912 43.3096 32.1013 44.0651 30.5078 44.5109C28.9144 44.9567 27.2487 45.084 25.606 44.8856C28.4735 46.7298 31.8116 47.7088 35.221 47.7056C46.7605 47.7056 53.071 38.1461 53.071 29.8556C53.071 29.5856 53.0635 29.3126 53.0515 29.0456C54.2798 28.1579 55.3399 27.0582 56.182 25.7981L56.1805 25.7966Z" fill="url(#paint0_linear_3331_80515)"/>
<path d="M22.9191 92.625V83.915H20.2411V82.94H26.6111V83.915H23.9591V92.625H22.9191ZM28.765 92.625L26.373 85.657H27.478L29.454 91.754H29.064L30.923 85.657H31.898L33.757 91.754H33.367L35.356 85.657H36.448L34.056 92.625H33.081L31.274 86.658H31.547L29.74 92.625H28.765ZM37.5904 92.625V85.657H38.5654V92.625H37.5904ZM37.5904 84.37V82.94H38.5654V84.37H37.5904ZM43.2261 92.703C42.6021 92.703 42.1211 92.521 41.7831 92.157C41.4451 91.793 41.2761 91.273 41.2761 90.597V86.632H39.9891V85.657H40.3141C40.6087 85.657 40.8427 85.5617 41.0161 85.371C41.1894 85.1717 41.2761 84.9247 41.2761 84.63V84.045H42.2511V85.657H43.7851V86.632H42.2511V90.597C42.2511 90.831 42.2857 91.039 42.3551 91.221C42.4244 91.3943 42.5414 91.533 42.7061 91.637C42.8794 91.741 43.1091 91.793 43.3951 91.793C43.4644 91.793 43.5467 91.7887 43.6421 91.78C43.7374 91.7713 43.8197 91.7627 43.8891 91.754V92.625C43.7851 92.651 43.6681 92.6683 43.5381 92.677C43.4081 92.6943 43.3041 92.703 43.2261 92.703ZM48.2661 92.703C47.6421 92.703 47.1611 92.521 46.8231 92.157C46.4851 91.793 46.3161 91.273 46.3161 90.597V86.632H45.0291V85.657H45.3541C45.6488 85.657 45.8828 85.5617 46.0561 85.371C46.2294 85.1717 46.3161 84.9247 46.3161 84.63V84.045H47.2911V85.657H48.8251V86.632H47.2911V90.597C47.2911 90.831 47.3258 91.039 47.3951 91.221C47.4644 91.3943 47.5814 91.533 47.7461 91.637C47.9194 91.741 48.1491 91.793 48.4351 91.793C48.5044 91.793 48.5868 91.7887 48.6821 91.78C48.7774 91.7713 48.8598 91.7627 48.9291 91.754V92.625C48.8251 92.651 48.7081 92.6683 48.5781 92.677C48.4481 92.6943 48.3441 92.703 48.2661 92.703ZM53.5592 92.781C52.9092 92.781 52.3199 92.625 51.7912 92.313C51.2712 91.9923 50.8596 91.5547 50.5562 91C50.2529 90.4453 50.1012 89.817 50.1012 89.115C50.1012 88.413 50.2486 87.7933 50.5432 87.256C50.8379 86.71 51.2366 86.281 51.7392 85.969C52.2506 85.657 52.8226 85.501 53.4552 85.501C53.9579 85.501 54.4042 85.5963 54.7942 85.787C55.1929 85.969 55.5309 86.2203 55.8082 86.541C56.0856 86.853 56.2979 87.2083 56.4452 87.607C56.5926 87.997 56.6662 88.4 56.6662 88.816C56.6662 88.9027 56.6619 89.0023 56.6532 89.115C56.6446 89.219 56.6316 89.3273 56.6142 89.44H50.7252V88.53H56.0552L55.5872 88.92C55.6652 88.4433 55.6089 88.0187 55.4182 87.646C55.2362 87.2647 54.9719 86.9657 54.6252 86.749C54.2786 86.5237 53.8886 86.411 53.4552 86.411C53.0219 86.411 52.6189 86.5237 52.2462 86.749C51.8822 86.9743 51.5962 87.2907 51.3882 87.698C51.1802 88.0967 51.0979 88.5733 51.1412 89.128C51.0979 89.6827 51.1846 90.168 51.4012 90.584C51.6266 90.9913 51.9299 91.3077 52.3112 91.533C52.7012 91.7583 53.1172 91.871 53.5592 91.871C54.0706 91.871 54.4996 91.7497 54.8462 91.507C55.1929 91.2643 55.4746 90.961 55.6912 90.597L56.5232 91.039C56.3846 91.351 56.1722 91.6413 55.8862 91.91C55.6002 92.17 55.2579 92.3823 54.8592 92.547C54.4692 92.703 54.0359 92.781 53.5592 92.781ZM58.3853 92.625V85.657H59.3603V86.801L59.2303 86.632C59.3949 86.3027 59.6419 86.0427 59.9713 85.852C60.3093 85.6613 60.7166 85.566 61.1933 85.566H61.6353V86.541H61.0243C60.5216 86.541 60.1186 86.697 59.8153 87.009C59.5119 87.321 59.3603 87.763 59.3603 88.335V92.625H58.3853Z" fill="#6F6781"/>
<defs>
<filter id="filter0_ddd_3331_80515" x="0.990302" y="0.375175" width="79.8944" height="72.2694" filterUnits="userSpaceOnUse" color-interpolation-filters="sRGB">
<feFlood flood-opacity="0" result="BackgroundImageFix"/>
<feColorMatrix in="SourceAlpha" type="matrix" values="0 0 0 0 0 0 0 0 0 0 0 0 0 0 0 0 0 0 127 0" result="hardAlpha"/>
<feOffset dy="0.264619"/>
<feGaussianBlur stdDeviation="0.622633"/>
<feColorMatrix type="matrix" values="0 0 0 0 0.0862745 0 0 0 0 0.0235294 0 0 0 0 0.67451 0 0 0 0.0112458 0"/>
<feBlend mode="normal" in2="BackgroundImageFix" result="effect1_dropShadow_3331_80515"/>
<feColorMatrix in="SourceAlpha" type="matrix" values="0 0 0 0 0 0 0 0 0 0 0 0 0 0 0 0 0 0 127 0" result="hardAlpha"/>
<feOffset dy="0.635916"/>
<feGaussianBlur stdDeviation="1.49627"/>
<feColorMatrix type="matrix" values="0 0 0 0 0.0862745 0 0 0 0 0.0235294 0 0 0 0 0.67451 0 0 0 0.0161557 0"/>
<feBlend mode="normal" in2="effect1_dropShadow_3331_80515" result="effect2_dropShadow_3331_80515"/>
<feColorMatrix in="SourceAlpha" type="matrix" values="0 0 0 0 0 0 0 0 0 0 0 0 0 0 0 0 0 0 127 0" result="hardAlpha"/>
<feOffset dy="1.19737"/>
<feGaussianBlur stdDeviation="2.81735"/>
<feColorMatrix type="matrix" values="0 0 0 0 0.0862745 0 0 0 0 0.0235294 0 0 0 0 0.67451 0 0 0 0.02 0"/>
<feBlend mode="normal" in2="effect2_dropShadow_3331_80515" result="effect3_dropShadow_3331_80515"/>
<feBlend mode="normal" in="SourceGraphic" in2="effect3_dropShadow_3331_80515" result="shape"/>
</filter>
<linearGradient id="paint0_linear_3331_80515" x1="56.182" y1="47.7056" x2="47.9876" y2="16.9302" gradientUnits="userSpaceOnUse">
<stop offset="0.107833" stop-color="#50E6FE"/>
<stop offset="1" stop-color="#733BFF"/>
</linearGradient>
</defs>
</svg>
